<?xml version="1.0" encoding="UTF-8" standalone="no"?>
<!-- Created with Inkscape (http://www.inkscape.org/) -->

<svg
   xmlns:dc="http://purl.org/dc/elements/1.1/"
   xmlns:cc="http://creativecommons.org/ns#"
   xmlns:rdf="http://www.w3.org/1999/02/22-rdf-syntax-ns#"
   xmlns:svg="http://www.w3.org/2000/svg"
   xmlns="http://www.w3.org/2000/svg"
   xmlns:sodipodi="http://sodipodi.sourceforge.net/DTD/sodipodi-0.dtd"
   xmlns:inkscape="http://www.inkscape.org/namespaces/inkscape"
   width="79.349998"
   height="79.5"
   id="svg9796"
   version="1.1"
   inkscape:version="0.48+devel r11964"
   sodipodi:docname="E002.svg">
  <title
     id="title16">EN ISO 7010:2012</title>
  <defs
     id="defs9798" />
  <sodipodi:namedview
     id="base"
     pagecolor="#ffffff"
     bordercolor="#666666"
     borderopacity="1.0"
     inkscape:pageopacity="0.0"
     inkscape:pageshadow="2"
     inkscape:zoom="0.35"
     inkscape:cx="39.675"
     inkscape:cy="39.750017"
     inkscape:document-units="px"
     inkscape:current-layer="layer1"
     showgrid="false"
     inkscape:window-width="478"
     inkscape:window-height="384"
     inkscape:window-x="800"
     inkscape:window-y="24"
     inkscape:window-maximized="0"
     fit-margin-top="0"
     fit-margin-left="0"
     fit-margin-right="0"
     fit-margin-bottom="0"
     showborder="false" />
  <metadata
     id="metadata9801">
    <rdf:RDF>
      <cc:Work
         rdf:about="">
        <dc:format>image/svg+xml</dc:format>
        <dc:type
           rdf:resource="http://purl.org/dc/dcmitype/StillImage" />
        <dc:title>EN ISO 7010:2012</dc:title>
        <cc:license
           rdf:resource="http://creativecommons.org/licenses/publicdomain/" />
        <dc:creator>
          <cc:Agent>
            <dc:title></dc:title>
          </cc:Agent>
        </dc:creator>
        <dc:source>www.veiligheidspictogrammen.be</dc:source>
      </cc:Work>
      <cc:License
         rdf:about="http://creativecommons.org/licenses/publicdomain/">
        <cc:permits
           rdf:resource="http://creativecommons.org/ns#Reproduction" />
        <cc:permits
           rdf:resource="http://creativecommons.org/ns#Distribution" />
        <cc:permits
           rdf:resource="http://creativecommons.org/ns#DerivativeWorks" />
      </cc:License>
    </rdf:RDF>
  </metadata>
  <g
     inkscape:label="Layer 1"
     inkscape:groupmode="layer"
     id="layer1"
     transform="translate(-335.325,-492.6122)">
    <g
       transform="matrix(1.25,0,0,-1.25,132.375,1160.5127)"
       id="g9310">
      <path
         d="m 162.36,470.9604 63.48,0 0,63.36 -63.48,0 L 162.36,470.9604 Z"
         style="fill:#1ea366;fill-opacity:1;fill-rule:evenodd;stroke:none"
         id="path1110"
         inkscape:connector-curvature="0" />
      <path
         d="m 174.96,483.9204 0,-8.28 -4.2,-4.2 38.16,0 4.32,4.2 0,54.48 -38.16,0 0,-39.12 c -2.28,0 -3.84,-1.2 -4.92,-2.16 -0.96,-0.96 -2.52,-5.04 -2.52,-5.04 l 7.32,0.12"
         style="fill:#ffffff;fill-opacity:1;fill-rule:evenodd;stroke:none"
         id="path1112"
         inkscape:connector-curvature="0" />
      <path
         d="m 199.32,515.7204 c -2.4,0 -4.44,2.04 -4.44,4.56 0,2.4 2.04,4.44 4.44,4.44 2.52,0 4.56,-2.04 4.56,-4.44 0,-2.52 -2.04,-4.56 -4.56,-4.56"
         style="fill:#1ea366;fill-opacity:1;fill-rule:evenodd;stroke:none"
         id="path1114"
         inkscape:connector-curvature="0" />
      <path
         d="m 191.64,497.1204 c 0,0 8.4,-16.44 9.24,-18 0.96,-1.44 2.04,-1.56 2.76,-1.56 l 4.32,0 -11.04,22.44 3.48,7.44 c 0,0 2.76,-3.72 3.72,-4.68 0.48,-0.6 1.08,-0.72 1.68,-0.72 l 8.16,0 0,4.2 -6.84,0 c 0,0 -3.36,4.32 -4.56,6 -1.44,1.92 -2.76,2.4 -5.52,2.4 l -9.36,0 c -1.68,0 -4.2,0.12 -5.4,-1.68 l -3.96,-6.6 0,0 c -0.24,-0.36 -0.36,-0.72 -0.36,-1.2 0,-1.2 0.96,-2.16 2.16,-2.16 0.72,0 1.44,0.48 1.8,1.08 l -0.12,-0.24 c 0,0 3.48,5.76 3.6,6.12 0.24,0.36 0.48,0.6 0.84,0.6 l 4.56,0 -3.6,-7.2 c -1.32,-2.76 -1.32,-8.04 -1.32,-8.04 l -0.36,-4.44 c 0,-0.6 -0.36,-0.72 -0.6,-0.72 0,0 -6.12,0 -7.08,0 -3.72,0 -5.52,-0.72 -6.72,-1.92 -1.2,-1.2 -1.56,-3.24 -1.56,-3.24 l 17.76,0 c 2.28,0 3.24,1.2 3.36,2.16 l 0.96,9.84 0,0.12"
         style="fill:#1ea366;fill-opacity:1;fill-rule:evenodd;stroke:none"
         id="path1116"
         inkscape:connector-curvature="0" />
      <path
         d="m 201.84,471.3204 5.16,4.92 -4.68,0 c -0.72,0 -2.16,-0.84 -3.72,-2.4 -1.44,-1.44 -2.64,-2.52 -2.64,-2.52 l 5.88,0"
         style="fill:#1ea366;fill-opacity:1;fill-rule:evenodd;stroke:none"
         id="path1118"
         inkscape:connector-curvature="0" />
      <path
         d="m 169.08,470.7204 46.08,0 0,0.6 -46.08,0 L 169.08,470.7204 Z"
         style="fill:#1ea366;fill-opacity:1;fill-rule:evenodd;stroke:none"
         id="path1120"
         inkscape:connector-curvature="0" />
    </g>
  </g>
</svg>
