<?xml version="1.0" encoding="UTF-8" standalone="no"?>
<!-- Created with Inkscape (http://www.inkscape.org/) -->

<svg
   xmlns:dc="http://purl.org/dc/elements/1.1/"
   xmlns:cc="http://creativecommons.org/ns#"
   xmlns:rdf="http://www.w3.org/1999/02/22-rdf-syntax-ns#"
   xmlns:svg="http://www.w3.org/2000/svg"
   xmlns="http://www.w3.org/2000/svg"
   xmlns:sodipodi="http://sodipodi.sourceforge.net/DTD/sodipodi-0.dtd"
   xmlns:inkscape="http://www.inkscape.org/namespaces/inkscape"
   width="79.349998"
   height="79.349998"
   id="svg9909"
   version="1.1"
   inkscape:version="0.48+devel r11964"
   sodipodi:docname="E004.svg">
    <title
     id="title16">EN ISO 7010:2012</title>
     <defs
     id="defs9911" />
  <sodipodi:namedview
     id="base"
     pagecolor="#ffffff"
     bordercolor="#666666"
     borderopacity="1.0"
     inkscape:pageopacity="0.0"
     inkscape:pageshadow="2"
     inkscape:zoom="0.35"
     inkscape:cx="39.675"
     inkscape:cy="39.674997"
     inkscape:document-units="px"
     inkscape:current-layer="layer1"
     showgrid="false"
     inkscape:window-width="478"
     inkscape:window-height="384"
     inkscape:window-x="800"
     inkscape:window-y="24"
     inkscape:window-maximized="0"
     fit-margin-top="0"
     fit-margin-left="0"
     fit-margin-right="0"
     fit-margin-bottom="0"
     showborder="false" />
  <metadata
     id="metadata9914">
    <rdf:RDF>
      <cc:Work
         rdf:about="">
        <dc:format>image/svg+xml</dc:format>
        <dc:type
           rdf:resource="http://purl.org/dc/dcmitype/StillImage" />
        <dc:title>EN ISO 7010:2012</dc:title>
        <cc:license
           rdf:resource="http://creativecommons.org/licenses/publicdomain/" />
        <dc:creator>
          <cc:Agent>
            <dc:title></dc:title>
          </cc:Agent>
        </dc:creator>
        <dc:source>www.veiligheidspictogrammen.be</dc:source>
      </cc:Work>
      <cc:License
         rdf:about="http://creativecommons.org/licenses/publicdomain/">
        <cc:permits
           rdf:resource="http://creativecommons.org/ns#Reproduction" />
        <cc:permits
           rdf:resource="http://creativecommons.org/ns#Distribution" />
        <cc:permits
           rdf:resource="http://creativecommons.org/ns#DerivativeWorks" />
      </cc:License>
    </rdf:RDF>
  </metadata>
  <g
     inkscape:label="Layer 1"
     inkscape:groupmode="layer"
     id="layer1"
     transform="translate(-335.325,-492.68718)">
    <g
       transform="matrix(1.25,0,0,-1.25,132.375,866.28768)"
       id="g9322">
      <path
         d="m 162.36,235.4004 63.48,0 0,63.48 -63.48,0 L 162.36,235.4004 Z"
         style="fill:#1ea366;fill-opacity:1;fill-rule:evenodd;stroke:none"
         id="path2214"
         inkscape:connector-curvature="0" />
      <path
         d="m 184.8,253.2804 c 0,0 -0.72,0.72 -1.2,1.56 -0.96,2.04 -2.4,6.72 -4.08,11.16 -1.92,5.64 -3.36,11.16 -3.36,11.16 0,0 0.72,1.08 1.68,0.84 1.2,-0.24 2.64,-0.36 2.64,-0.36 l -3.12,14.76 c 0,0 -2.88,0.12 -5.16,-0.96 -2.28,-1.08 -3.72,-2.88 -3.72,-2.88 0,0 -0.6,-4.44 -0.36,-10.56 0.36,-6.84 2.64,-13.92 2.64,-13.92 0,0 2.4,-7.56 6.36,-13.2 4.44,-6.36 9.72,-9.72 9.72,-9.72 0,0 3.6,0.48 6.48,1.44 2.64,0.84 4.56,2.16 4.56,2.16 l -10.08,11.4 -3,-2.88"
         style="fill:#ffffff;fill-opacity:1;fill-rule:evenodd;stroke:none"
         id="path2216"
         inkscape:connector-curvature="0" />
      <path
         d="m 183.36,278.2404 c 0.72,0.36 1.32,1.2 1.32,1.2 0,0 -0.84,3.6 -1.68,7.08 -0.72,3 -1.44,6 -1.44,6 0,0 -0.36,0.6 -0.96,0.6 -0.96,0.12 -2.16,-0.24 -2.16,-0.24 l 3,-14.64 c 0,0 1.08,-0.24 1.92,0"
         style="fill:#ffffff;fill-opacity:1;fill-rule:evenodd;stroke:none"
         id="path2218"
         inkscape:connector-curvature="0" />
      <path
         d="m 200.88,248.0004 c 0,0 -2.64,3.12 -5.16,6 -2.04,2.4 -3.84,4.56 -3.84,4.56 0,0 -1.08,0 -1.92,-0.48 -0.72,-0.36 -1.2,-1.32 -1.2,-1.32 l 10.2,-11.28 c 0,0 1.2,0.6 1.68,1.32 0.48,0.6 0.24,1.2 0.24,1.2"
         style="fill:#ffffff;fill-opacity:1;fill-rule:evenodd;stroke:none"
         id="path2220"
         inkscape:connector-curvature="0" />
      <path
         d="m 220.2,287.8404 0,-5.28 -5.4,0 0,-5.28 -5.28,0 0,5.28 -5.28,0 0,5.28 5.28,0 0,5.28 5.28,0 0,-5.28 5.4,0"
         style="fill:#ffffff;fill-opacity:1;fill-rule:evenodd;stroke:none"
         id="path2222"
         inkscape:connector-curvature="0" />
    </g>
  </g>
</svg>
