<?xml version="1.0" encoding="UTF-8" standalone="no"?>
<!-- Created with Inkscape (http://www.inkscape.org/) -->

<svg
   xmlns:dc="http://purl.org/dc/elements/1.1/"
   xmlns:cc="http://creativecommons.org/ns#"
   xmlns:rdf="http://www.w3.org/1999/02/22-rdf-syntax-ns#"
   xmlns:svg="http://www.w3.org/2000/svg"
   xmlns="http://www.w3.org/2000/svg"
   xmlns:sodipodi="http://sodipodi.sourceforge.net/DTD/sodipodi-0.dtd"
   xmlns:inkscape="http://www.inkscape.org/namespaces/inkscape"
   width="79.349998"
   height="79.349998"
   id="svg17533"
   version="1.1"
   inkscape:version="0.48+devel r11964"
   sodipodi:docname="E007.svg">
    <title
     id="title16">EN ISO 7010:2012</title>
     <defs
     id="defs17535" />
  <sodipodi:namedview
     id="base"
     pagecolor="#ffffff"
     bordercolor="#666666"
     borderopacity="1.0"
     inkscape:pageopacity="0.0"
     inkscape:pageshadow="2"
     inkscape:zoom="0.35"
     inkscape:cx="39.675"
     inkscape:cy="39.674997"
     inkscape:document-units="px"
     inkscape:current-layer="layer1"
     showgrid="false"
     inkscape:window-width="1231"
     inkscape:window-height="776"
     inkscape:window-x="49"
     inkscape:window-y="24"
     inkscape:window-maximized="1"
     showborder="false"
     fit-margin-top="0"
     fit-margin-left="0"
     fit-margin-right="0"
     fit-margin-bottom="0" />
  <metadata
     id="metadata17538">
    <rdf:RDF>
      <cc:Work
         rdf:about="">
        <dc:format>image/svg+xml</dc:format>
        <dc:type
           rdf:resource="http://purl.org/dc/dcmitype/StillImage" />
        <dc:title>EN ISO 7010:2012</dc:title>
        <cc:license
           rdf:resource="http://creativecommons.org/licenses/publicdomain/" />
        <dc:creator>
          <cc:Agent>
            <dc:title></dc:title>
          </cc:Agent>
        </dc:creator>
        <dc:source>www.veiligheidspictogrammen.be</dc:source>
      </cc:Work>
      <cc:License
         rdf:about="http://creativecommons.org/licenses/publicdomain/">
        <cc:permits
           rdf:resource="http://creativecommons.org/ns#Reproduction" />
        <cc:permits
           rdf:resource="http://creativecommons.org/ns#Distribution" />
        <cc:permits
           rdf:resource="http://creativecommons.org/ns#DerivativeWorks" />
      </cc:License>
    </rdf:RDF>
  </metadata>
  <g
     inkscape:label="Layer 1"
     inkscape:groupmode="layer"
     id="layer1"
     transform="translate(-335.325,-492.68718)">
    <g
       transform="translate(150.525,103.95018)"
       id="g17473">
      <path
         inkscape:connector-curvature="0"
         d="m 184.8,468.087 79.35,0 0,-79.35 -79.35,0 L 184.8,468.087 Z"
         style="fill:#1ea366;fill-opacity:1;fill-rule:evenodd;stroke:none"
         id="path4247" />
      <path
         inkscape:connector-curvature="0"
         d="m 237.75,422.937 0,10.2 -0.15,0.15 0,0.15 -0.15,0 -0.15,0.15 0,0.15 -0.15,0.15 -0.3,0 -0.15,0.15 -0.3,0 -0.15,-0.15 -0.3,0 -0.15,-0.15 -0.15,-0.15 -0.15,-0.15 0,0 -0.15,-0.15 0,-10.05 -0.15,-0.15 0,-0.15 -0.15,0 0,0 -0.15,0.15 0,23.1 -0.15,0.15 0,0.3 -0.15,0.15 -0.15,0.15 0,0.15 -0.15,0 -0.15,0.15 -0.15,0 -0.15,0.15 -0.75,0 -0.15,-0.15 -0.15,0 -0.15,-0.15 -0.15,0 -0.15,-0.15 0,-0.15 -0.15,-0.15 0,-0.15 -0.15,-0.15 0,-14.25 -0.15,0 -0.15,0 -0.15,0 0,14.4 -0.15,0.15 0,0.15 -0.15,0.15 -0.15,0.15 -0.15,0 -0.15,0.15 -0.15,0 -0.15,0.15 -0.6,0 -0.15,-0.15 -0.15,0 -0.15,-0.15 -0.15,0 -0.15,-0.15 -0.15,-0.15 0,-0.15 -0.15,-0.15 0,-23.25 -0.15,-0.15 0,-0.15 -0.15,0 0,0 -0.15,0.15 0,9.9 -0.15,0.15 0,0.3 -0.15,0 -0.15,0.15 0,0.15 -0.15,0.15 -0.3,0 -0.15,0.15 -0.45,0 -0.15,-0.15 -0.3,0 0,-0.15 -0.15,-0.15 -0.15,-0.15 -0.15,0 0,-0.3 -0.15,-0.15 0,-10.35 0.15,-0.15 0,-0.3 0.15,-0.3 0,-0.3 0.15,-0.15 0.15,-0.3 0.15,-0.3 0.15,-0.15 0.15,-0.15 0.3,-0.3 0.15,-0.15 0.3,-0.15 0.15,-0.15 0.3,-0.15 0.3,0 0.3,-0.15 6.3,0 0.15,0.15 0.3,0 0.3,0.15 0.3,0.15 0.15,0.15 0.3,0.15 0.15,0.3 0.15,0.15 0.15,0.15 0.15,0.3 0.15,0.3 0.15,0.15 0.15,0.3 0,0.3 0.15,0.3 0,0.45"
         style="fill:#ffffff;fill-opacity:1;fill-rule:evenodd;stroke:none"
         id="path4249" />
      <path
         inkscape:connector-curvature="0"
         d="m 237.75,422.937 0,10.2 -0.15,0.15 0,0.15 -0.15,0 -0.15,0.15 0,0.15 -0.15,0.15 -0.3,0 -0.15,0.15 -0.3,0 -0.15,-0.15 -0.3,0 -0.15,-0.15 -0.15,-0.15 -0.15,-0.15 0,0 -0.15,-0.15 0,-10.05 -0.15,-0.15 0,-0.15 -0.15,0 0,0 -0.15,0.15 0,23.1 -0.15,0.15 0,0.3 -0.15,0.15 -0.15,0.15 0,0.15 -0.15,0 -0.15,0.15 -0.15,0 -0.15,0.15 -0.75,0 -0.15,-0.15 -0.15,0 -0.15,-0.15 -0.15,0 -0.15,-0.15 0,-0.15 -0.15,-0.15 0,-0.15 -0.15,-0.15 0,-14.25 -0.15,0 -0.15,0 -0.15,0 0,14.4 -0.15,0.15 0,0.15 -0.15,0.15 -0.15,0.15 -0.15,0 -0.15,0.15 -0.15,0 -0.15,0.15 -0.6,0 -0.15,-0.15 -0.15,0 -0.15,-0.15 -0.15,0 -0.15,-0.15 -0.15,-0.15 0,-0.15 -0.15,-0.15 0,-23.25 -0.15,-0.15 0,-0.15 -0.15,0 0,0 -0.15,0.15 0,9.9 -0.15,0.15 0,0.3 -0.15,0 -0.15,0.15 0,0.15 -0.15,0.15 -0.3,0 -0.15,0.15 -0.45,0 -0.15,-0.15 -0.3,0 0,-0.15 -0.15,-0.15 -0.15,-0.15 -0.15,0 0,-0.3 -0.15,-0.15 0,-10.35 0.15,-0.15 0,-0.3 0.15,-0.3 0,-0.3 0.15,-0.15 0.15,-0.3 0.15,-0.3 0.15,-0.15 0.15,-0.15 0.3,-0.3 0.15,-0.15 0.3,-0.15 0.15,-0.15 0.3,-0.15 0.3,0 0.3,-0.15 6.3,0 0.15,0.15 0.3,0 0.3,0.15 0.3,0.15 0.15,0.15 0.3,0.15 0.15,0.3 0.15,0.15 0.15,0.15 0.15,0.3 0.15,0.3 0.15,0.15 0.15,0.3 0,0.3 0.15,0.3 L 237.75,422.937 Z"
         style="fill:none;stroke:#1ea366;stroke-width:0.113745;stroke-linecap:round;stroke-linejoin:miter;stroke-miterlimit:23;stroke-opacity:1;stroke-dasharray:none"
         id="path4251" />
      <path
         inkscape:connector-curvature="0"
         d="m 219.45,419.487 -5.55,0 -0.3,0.15 -0.15,0 -0.3,0.15 -0.3,0.15 -0.15,0.15 -0.3,0.15 -0.15,0.3 -0.15,0.15 -0.3,0.15 -0.15,0.3 0,0.3 -0.15,0.15 -0.15,0.3 0,0.3 -0.15,0.3 0,10.65 0.15,0.15 0,0.15 0.15,0 0,0.15 0.15,0.15 0.15,0.15 0.3,0 0.15,0.15 0.3,0 0.15,-0.15 0.3,0 0.15,-0.15 0.15,-0.15 0.15,-0.15 0,0 0.15,-0.15 0,-10.2 0.15,0 0,-0.15 0.15,0 0,0 0.15,0.15 0,23.25 0.15,0.15 0,0.15 0.15,0.15 0,0.15 0.15,0.15 0.15,0 0.15,0.15 0.15,0 0.15,0.15 0.75,0 0.15,-0.15 0.15,0 0.15,-0.15 0.15,0 0,-0.15 0.15,-0.15 0.15,-0.15 0,-0.3 0.15,-0.15 0,-14.1 0.15,0 0.15,0 0,0.15 0.15,0 0,14.25 0.15,0.15 0,0.15 0.15,0.15 0.15,0.15 0.15,0 0.15,0.15 0.15,0 0.15,0.15 0.6,0 0.15,-0.15 0.15,0 0.15,-0.15 0.15,0 0.15,-0.15 0.15,-0.15 0,-0.15 0.15,-0.15 0,-23.4 0.15,0 0,-0.15 0.15,0 0,0.15 0.15,0 0,10.05 0.15,0.15 0,0.15 0.15,0 0,0.15 0.15,0.15 0.15,0.15 0.3,0 0.15,0.15 0.3,0 0.15,-0.15 0.3,0 0.15,-0.15 0.15,-0.15 0.15,-0.15 0,0 0.15,-0.15 0,-11.1 -0.15,-0.3 0,-0.3 -0.15,-0.15 -0.15,-0.3 -0.15,-0.3 -0.15,-0.15 -0.3,-0.15 -0.15,-0.3 -0.15,-0.15 -0.3,-0.15 -0.3,-0.15 -0.15,-0.15 -0.3,0 -0.3,-0.15 -0.75,0"
         style="fill:#ffffff;fill-opacity:1;fill-rule:evenodd;stroke:none"
         id="path4253" />
      <path
         inkscape:connector-curvature="0"
         d="m 219.45,419.487 -5.55,0 -0.3,0.15 -0.15,0 -0.3,0.15 -0.3,0.15 -0.15,0.15 -0.3,0.15 -0.15,0.3 -0.15,0.15 -0.3,0.15 -0.15,0.3 0,0.3 -0.15,0.15 -0.15,0.3 0,0.3 -0.15,0.3 0,10.65 0.15,0.15 0,0.15 0.15,0 0,0.15 0.15,0.15 0.15,0.15 0.3,0 0.15,0.15 0.3,0 0.15,-0.15 0.3,0 0.15,-0.15 0.15,-0.15 0.15,-0.15 0,0 0.15,-0.15 0,-10.2 0.15,0 0,-0.15 0.15,0 0,0 0.15,0.15 0,23.25 0.15,0.15 0,0.15 0.15,0.15 0,0.15 0.15,0.15 0.15,0 0.15,0.15 0.15,0 0.15,0.15 0.75,0 0.15,-0.15 0.15,0 0.15,-0.15 0.15,0 0,-0.15 0.15,-0.15 0.15,-0.15 0,-0.3 0.15,-0.15 0,-14.1 0.15,0 0.15,0 0,0.15 0.15,0 0,14.25 0.15,0.15 0,0.15 0.15,0.15 0.15,0.15 0.15,0 0.15,0.15 0.15,0 0.15,0.15 0.6,0 0.15,-0.15 0.15,0 0.15,-0.15 0.15,0 0.15,-0.15 0.15,-0.15 0,-0.15 0.15,-0.15 0,-23.4 0.15,0 0,-0.15 0.15,0 0,0.15 0.15,0 0,10.05 0.15,0.15 0,0.15 0.15,0 0,0.15 0.15,0.15 0.15,0.15 0.3,0 0.15,0.15 0.3,0 0.15,-0.15 0.3,0 0.15,-0.15 0.15,-0.15 0.15,-0.15 0,0 0.15,-0.15 0,-11.1 -0.15,-0.3 0,-0.3 -0.15,-0.15 -0.15,-0.3 -0.15,-0.3 -0.15,-0.15 -0.3,-0.15 -0.15,-0.3 -0.15,-0.15 -0.3,-0.15 -0.3,-0.15 -0.15,-0.15 -0.3,0 -0.3,-0.15 L 219.45,419.487 Z"
         style="fill:none;stroke:#1ea366;stroke-width:0.113745;stroke-linecap:round;stroke-linejoin:miter;stroke-miterlimit:23;stroke-opacity:1;stroke-dasharray:none"
         id="path4255" />
      <path
         inkscape:connector-curvature="0"
         d="m 204.45,395.937 0,9.3 -9.3,-9.3 -3.15,3.15 9.3,9.3 -9.3,0 4.2,4.35 12.45,0 0,-12.6 -4.2,-4.2"
         style="fill:#ffffff;fill-opacity:1;fill-rule:evenodd;stroke:none"
         id="path4257" />
      <path
         inkscape:connector-curvature="0"
         d="m 256.95,408.387 -9.3,0 9.3,-9.3 -3.15,-3.15 -9.3,9.3 0,-9.3 -4.35,4.2 0,12.6 12.6,0 4.2,-4.35"
         style="fill:#ffffff;fill-opacity:1;fill-rule:evenodd;stroke:none"
         id="path4259" />
      <path
         inkscape:connector-curvature="0"
         d="m 256.95,457.737 -9.3,-9.3 9.3,0 -4.2,-4.35 -12.6,0 0,12.6 4.35,4.2 0,-9.3 9.3,9.3 3.15,-3.15"
         style="fill:#ffffff;fill-opacity:1;fill-rule:evenodd;stroke:none"
         id="path4261" />
      <path
         inkscape:connector-curvature="0"
         d="m 196.2,444.087 12.45,0 0,12.6 -4.2,4.2 0,-9.3 -9.3,9.3 -3.15,-3.15 9.3,-9.3 -9.3,0 4.2,-4.35"
         style="fill:#ffffff;fill-opacity:1;fill-rule:evenodd;stroke:none"
         id="path4263" />
      <path
         inkscape:connector-curvature="0"
         d="m 219.45,416.337 0,-0.75 -0.15,-0.15 0,-0.3 -0.15,-0.15 -0.15,-0.15 -0.15,-0.15 -0.15,-0.15 -0.15,-0.15 -0.15,-0.15 -0.3,-0.15 -0.15,-0.15 -0.45,0 -0.15,-0.15 -0.45,0 -0.3,0.15 -0.45,0 -0.15,0.15 -0.15,0.15 -0.3,0.15 -0.15,0.15 -0.15,0.15 -0.15,0.15 -0.15,0.15 0,0.15 -0.15,0.3 -0.15,0.15 0,1.35 0.15,0.3 0.15,0.15 0,0.15 0.15,0.3 0.15,0.15 0.15,0.15 0.15,0.15 0.3,0.15 0.15,0 0.15,0.15 0.3,0 0.15,0.15 0.9,0 0.3,-0.15 0.15,0 0.15,-0.15 0.3,0 0.15,-0.15 0.15,-0.15 0.15,-0.15 0.15,-0.15 0.15,-0.3 0.15,-0.15 0,-0.15 0.15,-0.3 0,-0.6"
         style="fill:#ffffff;fill-opacity:1;fill-rule:evenodd;stroke:none"
         id="path4265" />
      <path
         inkscape:connector-curvature="0"
         d="m 234.3,416.337 0,-0.45 -0.15,-0.3 0,-0.15 -0.15,-0.3 -0.15,-0.15 0,-0.15 -0.15,-0.15 -0.15,-0.15 -0.3,-0.15 -0.15,-0.15 -0.15,-0.15 -0.15,-0.15 -0.45,0 -0.3,-0.15 -0.45,0 -0.15,0.15 -0.45,0 -0.3,0.15 -0.15,0.15 -0.15,0.15 -0.15,0.15 -0.15,0.15 -0.15,0.15 -0.15,0.15 -0.15,0.15 -0.15,0.3 0,0.45 -0.15,0.15 0,0.45 0.15,0.3 0,0.45 0.15,0.15 0.15,0.15 0.15,0.3 0.15,0.15 0.15,0.15 0.15,0.15 0.15,0.15 0.15,0 0.3,0.15 0.15,0 0.3,0.15 0.9,0 0.15,-0.15 0.3,0 0.15,-0.15 0.15,0 0.15,-0.15 0.3,-0.15 0.15,-0.15 0.15,-0.15 0,-0.3 0.15,-0.15 0.15,-0.15 0,-0.3 0.15,-0.15 0,-0.45"
         style="fill:#ffffff;fill-opacity:1;fill-rule:evenodd;stroke:none"
         id="path4267" />
      <path
         inkscape:connector-curvature="0"
         d="m 226.95,411.687 0,-0.15 -0.15,-0.3 0,-0.3 -0.15,-0.3 -0.15,-0.15 -0.15,-0.15 -0.15,-0.3 -0.15,-0.15 -0.15,-0.15 -0.15,0 -0.15,-0.15 -0.3,-0.15 -0.15,0 -0.3,-0.15 -0.9,0 -0.15,0.15 -0.3,0 -0.15,0.15 -0.15,0.15 -0.15,0 -0.3,0.15 -0.15,0.15 -0.15,0.3 -0.15,0.15 0,0.15 -0.15,0.3 0,0.15 -0.15,0.15 0,0.9 0.15,0.3 0,0.15 0.15,0.3 0,0.15 0.15,0.15 0.15,0.15 0.15,0.15 0.3,0.15 0.15,0.15 0.15,0.15 0.15,0.15 0.45,0 0.3,0.15 0.45,0 0.15,-0.15 0.45,0 0.3,-0.15 0.15,-0.15 0.15,-0.15 0.15,-0.15 0.15,-0.15 0.15,-0.15 0.15,-0.15 0.15,-0.15 0.15,-0.3 0,-0.45 0.15,-0.15 0,-0.3"
         style="fill:#ffffff;fill-opacity:1;fill-rule:evenodd;stroke:none"
         id="path4269" />
    </g>
  </g>
</svg>
