<?xml version="1.0" encoding="UTF-8" standalone="no"?>
<!-- Created with Inkscape (http://www.inkscape.org/) -->

<svg
   xmlns:dc="http://purl.org/dc/elements/1.1/"
   xmlns:cc="http://creativecommons.org/ns#"
   xmlns:rdf="http://www.w3.org/1999/02/22-rdf-syntax-ns#"
   xmlns:svg="http://www.w3.org/2000/svg"
   xmlns="http://www.w3.org/2000/svg"
   xmlns:sodipodi="http://sodipodi.sourceforge.net/DTD/sodipodi-0.dtd"
   xmlns:inkscape="http://www.inkscape.org/namespaces/inkscape"
   width="79.349998"
   height="79.349998"
   id="svg18358"
   version="1.1"
   inkscape:version="0.48+devel r11964"
   sodipodi:docname="E009.svg">
    <title
     id="title16">EN ISO 7010:2012</title>
     <defs
     id="defs18360" />
  <sodipodi:namedview
     id="base"
     pagecolor="#ffffff"
     bordercolor="#666666"
     borderopacity="1.0"
     inkscape:pageopacity="0.0"
     inkscape:pageshadow="2"
     inkscape:zoom="0.35"
     inkscape:cx="39.675"
     inkscape:cy="39.674997"
     inkscape:document-units="px"
     inkscape:current-layer="layer1"
     showgrid="false"
     inkscape:window-width="474"
     inkscape:window-height="415"
     inkscape:window-x="49"
     inkscape:window-y="24"
     inkscape:window-maximized="0"
     fit-margin-top="0"
     fit-margin-left="0"
     fit-margin-right="0"
     fit-margin-bottom="0"
     showborder="false" />
  <metadata
     id="metadata18363">
    <rdf:RDF>
      <cc:Work
         rdf:about="">
        <dc:format>image/svg+xml</dc:format>
        <dc:type
           rdf:resource="http://purl.org/dc/dcmitype/StillImage" />
        <dc:title>EN ISO 7010:2012</dc:title>
        <cc:license
           rdf:resource="http://creativecommons.org/licenses/publicdomain/" />
        <dc:creator>
          <cc:Agent>
            <dc:title></dc:title>
          </cc:Agent>
        </dc:creator>
        <dc:source>www.veiligheidspictogrammen.be</dc:source>
      </cc:Work>
      <cc:License
         rdf:about="http://creativecommons.org/licenses/publicdomain/">
        <cc:permits
           rdf:resource="http://creativecommons.org/ns#Reproduction" />
        <cc:permits
           rdf:resource="http://creativecommons.org/ns#Distribution" />
        <cc:permits
           rdf:resource="http://creativecommons.org/ns#DerivativeWorks" />
      </cc:License>
    </rdf:RDF>
  </metadata>
  <g
     inkscape:label="Layer 1"
     inkscape:groupmode="layer"
     id="layer1"
     transform="translate(-335.325,-492.68718)">
    <g
       transform="translate(150.525,-178.49982)"
       id="g18339">
      <path
         inkscape:connector-curvature="0"
         d="m 184.8,750.537 79.35,0 0,-79.35 -79.35,0 L 184.8,750.537 Z"
         style="fill:#1ea366;fill-opacity:1;fill-rule:evenodd;stroke:none"
         id="path5195" />
      <path
         inkscape:connector-curvature="0"
         d="m 217.95,737.787 -0.9,-2.25 -11.1,-24.6 -1.05,0.15 -1.2,0.3 -1.05,0.45 -1.2,0.45 -0.9,0.45 -1.05,0.75 -1.05,0.6 -0.9,0.75 -0.75,0.75 -0.9,0.9 -0.75,0.9 -0.6,1.05 -0.6,1.05 -0.45,1.05 -0.45,1.05 -0.45,1.2 -0.3,1.05 -0.15,1.2 -0.15,1.2 0,17.1 40.5,0 0,-15.3 2.1,0 0,15.3 9.45,0 0,-17.1 -0.15,-1.2 -0.15,-1.2 -0.3,-1.05 -0.45,-1.2 -0.45,-1.05 -0.45,-1.05 -0.6,-1.05 -0.75,-1.05 -0.75,-0.9 -0.75,-0.9 -0.75,-0.75 -1.05,-0.75 -0.9,-0.6 -1.05,-0.75 -1.05,-0.45 -1.05,-0.45 -1.05,-0.45 -1.2,-0.3 -1.2,-0.15 -11.7,26.25 L 217.95,737.787 z m 13.35,-38.1 0,1.2 -0.15,1.35 -0.15,1.2 -0.3,1.2 -0.3,1.2 -0.3,1.2 -0.45,1.05 -0.45,1.05 -0.6,1.05 -0.45,1.05 -0.6,0.9 -0.75,0.9 -0.6,0.75 -0.75,0.75 -0.75,0.75 -0.75,0.6 -0.75,0.45 -0.9,0.45 -0.75,0.45 -0.9,0.3 -0.9,0.15 -0.9,0.15 0,17.4 -0.15,0.75 -0.3,0.6 -0.15,0.75 -0.45,0.75 -0.45,0.6 -0.45,0.45 -0.6,0.6 -0.6,0.45 -0.75,0.3 -0.6,0.3 -0.75,0.15 -0.75,0.15 -1.5,0 -0.75,-0.15 -0.75,-0.3 -0.75,-0.3 -0.6,-0.3 -0.6,-0.45 -0.6,-0.6 -0.45,-0.6 -0.45,-0.6 -0.6,-1.05 -0.6,-1.2 -0.45,-1.2 -0.3,-1.2 -0.3,-1.2 -0.15,-1.35 -0.6,0 -0.45,-0.3 -0.6,-0.15 -0.45,-0.45 -0.45,-0.3 -0.3,-0.45 -0.3,-0.6 -0.3,-0.45 -0.15,-0.6 0,-1.2 0.15,-0.6 0.15,-0.6 0.15,-0.45 0.45,-0.6 0.3,-0.3 0.6,-0.45 0.45,-0.3 0.6,-0.15 0.45,-0.15 0.6,-0.15 0.6,0.15 0.6,0 0.6,0.15 0.45,0.3 0.6,0.45 0.3,0.3 0.45,0.45 0.3,0.6 0.15,0.45 0.15,0.6 0.15,0.6 0,0.6 -0.15,0.6 -0.15,0.6 -0.3,0.45 -0.45,0.45 -0.3,0.45 -0.45,0.45 -0.6,0.3 -0.45,0.15 0.15,1.2 0.15,1.05 0.3,1.2 0.45,1.05 0.45,1.05 0.6,0.9 0.3,0.6 0.45,0.45 0.45,0.45 0.6,0.45 0.6,0.15 0.6,0.3 0.6,0.15 1.35,0 0.6,-0.15 0.6,-0.3 0.6,-0.3 0.6,-0.3 0.45,-0.45 0.45,-0.45 0.3,-0.6 0.3,-0.6 0.3,-0.6 0,-0.6 0.15,-0.6 0,-16.65 -0.9,-0.15 -0.9,-0.15 -0.9,-0.3 -0.75,-0.45 -0.9,-0.45 -0.75,-0.45 -0.75,-0.6 -0.75,-0.75 -0.75,-0.75 -0.75,-0.75 -0.6,-0.9 -0.6,-0.9 -0.6,-1.05 -0.45,-1.05 -0.45,-1.05 -0.45,-1.05 -0.3,-1.2 -0.3,-1.2 -0.3,-1.2 -0.15,-1.2 -0.15,-1.35 0,-1.5 0.15,-0.15 0.15,-0.3 0.3,0 0.15,-0.15 0.3,0.15 0.15,0 0.3,0.15 0.15,0.3 0,1.5 0.15,1.05 0.15,1.2 0.3,1.2 0.3,1.05 0.3,1.2 0.45,1.05 0.3,1.05 0.6,0.9 0.45,0.9 0.6,0.9 0.6,0.75 0.6,0.75 0.75,0.6 0.6,0.6 0.75,0.6 0.75,0.45 0.75,0.3 0.75,0.3 0.9,0.3 0.75,0 0.75,0.15 0.9,-0.15 0.75,0 0.75,-0.3 0.9,-0.3 0.75,-0.3 0.75,-0.45 0.75,-0.6 0.6,-0.6 0.75,-0.6 0.6,-0.75 0.6,-0.75 0.6,-0.9 0.45,-0.9 0.45,-0.9 0.45,-1.05 0.45,-1.05 0.3,-1.2 0.3,-1.05 0.15,-1.2 0.15,-1.2 0.15,-1.05 0.15,-1.2 0,-0.3 0.15,-0.3 0.15,-0.15 0.3,0 0.3,-0.15 0.15,0.15 0.3,0 0.15,0.3 0.15,0.15 L 231.3,699.687 z m -13.35,-13.95 -0.75,0.15 -0.9,0.15 -0.9,0.15 -0.9,0.3 -0.75,0.3 -0.9,0.45 -0.75,0.6 -0.75,0.6 -0.6,0.6 -0.6,0.75 -0.6,0.75 -0.45,0.75 -0.45,0.9 -0.45,0.9 -0.3,0.9 -0.15,0.9 -0.15,1.05 -0.15,0.9 0,1.05 0.15,0.9 0.15,1.05 0.15,0.9 0.3,0.9 0.45,0.9 0.45,0.9 0.45,0.9 0.6,0.75 0.6,0.6 0.6,0.75 0.75,0.6 0.75,0.45 0.9,0.45 0.75,0.3 0.9,0.3 0.9,0.3 0.9,0.15 1.65,0 0.9,-0.15 0.9,-0.3 0.9,-0.3 0.75,-0.3 0.9,-0.45 0.75,-0.45 0.6,-0.6 0.75,-0.75 0.6,-0.6 0.6,-0.75 0.45,-0.9 0.45,-0.9 0.3,-0.9 0.3,-0.9 0.3,-0.9 0.15,-1.05 0,-2.85 -0.15,-1.05 -0.3,-0.9 -0.3,-0.9 -0.3,-0.9 -0.45,-0.9 -0.45,-0.75 -0.6,-0.75 -0.6,-0.75 -0.75,-0.6 -0.6,-0.6 -0.75,-0.6 -0.9,-0.45 -0.75,-0.3 -0.9,-0.3 -0.9,-0.15 -0.9,-0.15 L 217.95,685.737 z m -12.45,40.8 0,-0.3 -0.15,-0.3 -0.15,-0.15 -0.15,-0.15 -0.3,-0.15 -0.6,0 -0.15,0.15 -0.3,0.15 -0.15,0.15 -0.15,0.3 0,0.6 0.15,0.3 0.15,0.15 0.3,0.15 0.15,0.15 0.6,0 0.3,-0.15 0.15,-0.15 0.15,-0.15 0.15,-0.3 0,-0.3"
         style="fill:#ffffff;fill-opacity:1;fill-rule:evenodd;stroke:none"
         id="path5197" />
      <path
         inkscape:connector-curvature="0"
         d="m 256.95,684.987 -6.6,0 0,-6.6 -6.6,0 0,6.6 -6.6,0 0,6.6 6.6,0 0,6.6 6.6,0 0,-6.6 6.6,0 0,-6.6"
         style="fill:#ffffff;fill-opacity:1;fill-rule:evenodd;stroke:none"
         id="path5199" />
    </g>
  </g>
</svg>
