<?xml version="1.0" encoding="UTF-8" standalone="no"?>
<!-- Created with Inkscape (http://www.inkscape.org/) -->

<svg
   xmlns:dc="http://purl.org/dc/elements/1.1/"
   xmlns:cc="http://creativecommons.org/ns#"
   xmlns:rdf="http://www.w3.org/1999/02/22-rdf-syntax-ns#"
   xmlns:svg="http://www.w3.org/2000/svg"
   xmlns="http://www.w3.org/2000/svg"
   xmlns:sodipodi="http://sodipodi.sourceforge.net/DTD/sodipodi-0.dtd"
   xmlns:inkscape="http://www.inkscape.org/namespaces/inkscape"
   width="79.349998"
   height="79.199997"
   id="svg11728"
   version="1.1"
   inkscape:version="0.48+devel r11964"
   sodipodi:docname="E011.svg">
    <title
     id="title16">EN ISO 7010:2012</title>
     <defs
     id="defs11730" />
  <sodipodi:namedview
     id="base"
     pagecolor="#ffffff"
     bordercolor="#666666"
     borderopacity="1.0"
     inkscape:pageopacity="0.0"
     inkscape:pageshadow="2"
     inkscape:zoom="0.35"
     inkscape:cx="39.675"
     inkscape:cy="39.600017"
     inkscape:document-units="px"
     inkscape:current-layer="layer1"
     showgrid="false"
     inkscape:window-width="474"
     inkscape:window-height="415"
     inkscape:window-x="49"
     inkscape:window-y="24"
     inkscape:window-maximized="0"
     fit-margin-top="0"
     fit-margin-left="0"
     fit-margin-right="0"
     fit-margin-bottom="0"
     showborder="false" />
  <metadata
     id="metadata11733">
    <rdf:RDF>
      <cc:Work
         rdf:about="">
        <dc:format>image/svg+xml</dc:format>
        <dc:type
           rdf:resource="http://purl.org/dc/dcmitype/StillImage" />
        <dc:title>EN ISO 7010:2012</dc:title>
        <cc:license
           rdf:resource="http://creativecommons.org/licenses/publicdomain/" />
        <dc:creator>
          <cc:Agent>
            <dc:title></dc:title>
          </cc:Agent>
        </dc:creator>
        <dc:source>www.veiligheidspictogrammen.be</dc:source>
      </cc:Work>
      <cc:License
         rdf:about="http://creativecommons.org/licenses/publicdomain/">
        <cc:permits
           rdf:resource="http://creativecommons.org/ns#Reproduction" />
        <cc:permits
           rdf:resource="http://creativecommons.org/ns#Distribution" />
        <cc:permits
           rdf:resource="http://creativecommons.org/ns#DerivativeWorks" />
      </cc:License>
    </rdf:RDF>
  </metadata>
  <g
     inkscape:label="Layer 1"
     inkscape:groupmode="layer"
     id="layer1"
     transform="translate(-335.325,-492.7622)">
    <g
       transform="matrix(1.25,0,0,-1.25,132.375,1291.6127)"
       id="g11685">
      <path
         d="m 162.36,575.7204 63.48,0 0,63.36 -63.48,0 L 162.36,575.7204 Z"
         style="fill:#1ea366;fill-opacity:1;fill-rule:evenodd;stroke:none"
         id="path656"
         inkscape:connector-curvature="0" />
      <path
         d="m 196.2,596.3604 c 0,-2.04 -0.48,-3.84 -2.76,-4.32 -0.72,-0.12 -1.56,-0.24 -2.4,-0.36 -1.68,-0.12 -2.4,-0.96 -2.52,-2.4 l 0,-7.92 -5.04,0 0,7.92 c -0.12,1.44 -0.96,2.28 -2.52,2.4 -0.84,0.12 -1.68,0.24 -2.52,0.36 -2.28,0.48 -2.64,2.28 -2.64,4.32 l 20.4,0"
         style="fill:#ffffff;fill-opacity:1;fill-rule:evenodd;stroke:none"
         id="path658"
         inkscape:connector-curvature="0" />
      <path
         d="m 194.64,598.4004 c 0,-0.6 -0.48,-1.08 -1.08,-1.08 -0.6,0 -0.96,0.48 -0.96,1.08 0,0.6 0.48,1.08 0.96,1.08 C 194.16,599.4804 194.64,599.0004 194.64,598.4004 z m -2.64,0 c 0,-0.6 -0.48,-1.08 -1.08,-1.08 -0.6,0 -0.96,0.48 -0.96,1.08 0,0.6 0.36,1.08 0.96,1.08 C 191.52,599.4804 192,599.0004 192,598.4004 z m -2.64,0 c 0,-0.6 -0.48,-1.08 -1.08,-1.08 -0.6,0 -0.96,0.48 -0.96,1.08 0,0.6 0.36,1.08 0.96,1.08 C 188.88,599.4804 189.36,599.0004 189.36,598.4004 z m -9.96,0 c 0,-0.6 -0.48,-1.08 -1.08,-1.08 -0.48,0 -0.96,0.48 -0.96,1.08 0,0.6 0.48,1.08 0.96,1.08 C 178.92,599.4804 179.4,599.0004 179.4,598.4004 z m 2.64,0 c 0,-0.6 -0.48,-1.08 -1.08,-1.08 -0.6,0 -0.96,0.48 -0.96,1.08 0,0.6 0.36,1.08 0.96,1.08 C 181.56,599.4804 182.04,599.0004 182.04,598.4004 z m 2.64,0 c 0,-0.6 -0.48,-1.08 -1.08,-1.08 -0.48,0 -0.96,0.48 -0.96,1.08 0,0.6 0.48,1.08 0.96,1.08 C 184.2,599.4804 184.68,599.0004 184.68,598.4004 z m 2.28,0 c 0,-0.6 -0.36,-1.08 -0.96,-1.08 -0.6,0 -1.08,0.48 -1.08,1.08 0,0.6 0.48,1.08 1.08,1.08 C 186.6,599.4804 186.96,599.0004 186.96,598.4004 z m -11.16,-2.04 c 0,0.12 0,0.36 0,0.48 l 0,0.12 20.4,0 0,-0.12 c 0,-0.12 0,-0.36 0,-0.48 L 175.8,596.3604 z m 18.96,5.04 c 0.12,-0.24 0.12,-0.36 0.12,-0.6 0,-0.6 -0.48,-0.96 -0.96,-0.96 -0.6,0 -1.08,0.36 -1.08,0.96 0,0.24 0.12,0.36 0.12,0.6 L 194.76,601.4004 z m -2.88,0 c 0,-0.24 0.12,-0.36 0.12,-0.6 0,-0.6 -0.48,-0.96 -1.08,-0.96 -0.6,0 -0.96,0.36 -0.96,0.96 0,0.24 0,0.36 0.12,0.6 L 191.88,601.4004 z m -2.64,0 c 0,-0.24 0.12,-0.36 0.12,-0.6 0,-0.6 -0.48,-0.96 -1.08,-0.96 -0.6,0 -0.96,0.36 -0.96,0.96 0,0.24 0,0.36 0.12,0.6 L 189.24,601.4004 z m -2.4,0 c 0.12,-0.24 0.12,-0.36 0.12,-0.6 0,-0.6 -0.36,-0.96 -0.96,-0.96 -0.6,0 -1.08,0.36 -1.08,0.96 0,0.24 0.12,0.36 0.12,0.6 L 186.84,601.4004 z m -2.28,0 c 0,-0.24 0.12,-0.36 0.12,-0.6 0,-0.6 -0.48,-0.96 -1.08,-0.96 -0.48,0 -0.96,0.36 -0.96,0.96 0,0.24 0,0.36 0.12,0.6 L 184.56,601.4004 z m -2.76,0 c 0.12,-0.24 0.24,-0.36 0.24,-0.6 0,-0.6 -0.48,-0.96 -1.08,-0.96 -0.6,0 -0.96,0.36 -0.96,0.96 0,0.24 0,0.36 0.12,0.6 L 181.8,601.4004 z m -2.88,0 c 0.12,-0.24 0.12,-0.36 0.12,-0.6 0,-0.6 -0.36,-0.96 -0.96,-0.96 -0.6,0 -1.08,0.36 -1.08,0.96 0,0.24 0.12,0.36 0.12,0.6 l 1.8,0"
         style="fill:#ffffff;fill-opacity:1;fill-rule:evenodd;stroke:none"
         id="path660"
         inkscape:connector-curvature="0" />
      <path
         d="m 192.96,601.4004 c 0.24,0.24 0.48,0.48 0.96,0.48 0.36,0 0.6,-0.24 0.84,-0.48 L 192.96,601.4004 z m -2.88,0 c 0.12,0.24 0.48,0.48 0.84,0.48 0.36,0 0.72,-0.24 0.96,-0.48 L 190.08,601.4004 z m -2.64,0 c 0.24,0.24 0.48,0.48 0.84,0.48 0.36,0 0.72,-0.24 0.96,-0.48 L 187.44,601.4004 z m -2.28,0 c 0.12,0.24 0.48,0.48 0.84,0.48 0.36,0 0.72,-0.24 0.84,-0.48 L 185.16,601.4004 z m -2.4,0 c 0.12,0.24 0.48,0.48 0.84,0.48 0.36,0 0.72,-0.24 0.96,-0.48 L 182.76,601.4004 z m -2.64,0 c 0.12,0.24 0.48,0.48 0.84,0.48 0.36,0 0.72,-0.24 0.84,-0.48 L 180.12,601.4004 z m -3,0 c 0.24,0.24 0.6,0.48 0.96,0.48 0.36,0 0.72,-0.24 0.84,-0.48 L 177.12,601.4004 z m 18.12,2.4 c 0.12,-0.12 0.24,-0.36 0.24,-0.6 0,-0.6 -0.48,-1.08 -0.96,-1.08 -0.6,0 -1.08,0.48 -1.08,1.08 0,0.24 0.12,0.48 0.24,0.6 L 195.24,603.8004 z m -3.24,0 c 0.24,-0.12 0.24,-0.36 0.24,-0.6 0,-0.6 -0.48,-1.08 -0.96,-1.08 -0.6,0 -1.08,0.48 -1.08,1.08 0,0.24 0.12,0.48 0.24,0.6 L 192,603.8004 z m -2.88,0 c 0.12,-0.12 0.24,-0.36 0.24,-0.6 0,-0.6 -0.48,-1.08 -1.08,-1.08 -0.6,0 -0.96,0.48 -0.96,1.08 0,0.24 0,0.48 0.24,0.6 L 189.12,603.8004 z m -2.4,0 c 0.24,-0.12 0.24,-0.36 0.24,-0.6 0,-0.6 -0.36,-1.08 -0.96,-1.08 -0.6,0 -1.08,0.48 -1.08,1.08 0,0.24 0.12,0.48 0.24,0.6 L 186.72,603.8004 z m -2.28,0 c 0.12,-0.12 0.24,-0.36 0.24,-0.6 0,-0.6 -0.48,-1.08 -1.08,-1.08 -0.48,0 -0.96,0.48 -0.96,1.08 0,0.24 0,0.48 0.24,0.6 L 184.44,603.8004 z m -3,0 c 0.24,-0.12 0.24,-0.36 0.24,-0.6 0,-0.6 -0.36,-1.08 -0.96,-1.08 -0.6,0 -1.08,0.48 -1.08,1.08 0,0.24 0.12,0.48 0.24,0.6 L 181.44,603.8004 z m -3.24,0 c 0.24,-0.12 0.36,-0.36 0.36,-0.6 0,-0.6 -0.48,-1.08 -1.08,-1.08 -0.6,0 -1.08,0.48 -1.08,1.08 0,0.24 0.12,0.48 0.24,0.6 l 1.56,0"
         style="fill:#ffffff;fill-opacity:1;fill-rule:evenodd;stroke:none"
         id="path662"
         inkscape:connector-curvature="0" />
      <path
         d="m 193.68,603.8004 c 0.12,0.24 0.48,0.48 0.84,0.48 0.24,0 0.6,-0.24 0.72,-0.48 L 193.68,603.8004 z m -3.24,0 c 0.24,0.24 0.48,0.48 0.84,0.48 0.24,0 0.6,-0.24 0.72,-0.48 L 190.44,603.8004 z m -2.88,0 c 0.12,0.24 0.48,0.48 0.72,0.48 0.36,0 0.6,-0.24 0.84,-0.48 L 187.56,603.8004 z m -2.4,0 c 0.24,0.24 0.48,0.48 0.84,0.48 0.24,0 0.6,-0.24 0.72,-0.48 L 185.16,603.8004 z m -2.28,0 c 0.12,0.24 0.48,0.48 0.72,0.48 0.36,0 0.6,-0.24 0.84,-0.48 L 182.88,603.8004 z m -3,0 c 0.24,0.24 0.48,0.48 0.84,0.48 0.36,0 0.6,-0.24 0.72,-0.48 L 179.88,603.8004 z m -3.24,0 c 0.24,0.24 0.48,0.48 0.84,0.48 0.36,0 0.6,-0.24 0.72,-0.48 L 176.64,603.8004 z m 19.2,2.52 c 0.12,-0.12 0.24,-0.36 0.24,-0.6 0,-0.6 -0.48,-1.08 -1.08,-1.08 -0.48,0 -0.96,0.48 -0.96,1.08 0,0.24 0.12,0.48 0.24,0.6 L 195.84,606.3204 z m -3.48,0 c 0.12,-0.12 0.24,-0.36 0.24,-0.6 0,-0.6 -0.48,-1.08 -1.08,-1.08 -0.6,0 -0.96,0.48 -0.96,1.08 0,0.24 0,0.48 0.24,0.6 L 192.36,606.3204 z m -3,0 c 0.24,-0.12 0.24,-0.36 0.24,-0.6 0,-0.6 -0.48,-1.08 -0.96,-1.08 -0.6,0 -1.08,0.48 -1.08,1.08 0,0.24 0.12,0.48 0.24,0.6 L 189.36,606.3204 z m -2.64,0 c 0.24,-0.12 0.24,-0.36 0.24,-0.6 0,-0.6 -0.36,-1.08 -0.96,-1.08 -0.6,0 -1.08,0.48 -1.08,1.08 0,0.24 0.12,0.48 0.24,0.6 L 186.72,606.3204 z m -2.64,0 c 0.24,-0.12 0.24,-0.36 0.24,-0.6 0,-0.6 -0.36,-1.08 -0.96,-1.08 -0.6,0 -1.08,0.48 -1.08,1.08 0,0.24 0.12,0.48 0.24,0.6 L 184.08,606.3204 z m -2.88,0 c 0.12,-0.12 0.24,-0.36 0.24,-0.6 0,-0.6 -0.48,-1.08 -1.08,-1.08 -0.48,0 -0.96,0.48 -0.96,1.08 0,0.24 0,0.48 0.24,0.6 L 181.2,606.3204 z m -3.48,0 c 0.12,-0.12 0.24,-0.36 0.24,-0.6 0,-0.6 -0.48,-1.08 -1.08,-1.08 -0.6,0 -1.08,0.48 -1.08,1.08 0,0.24 0.12,0.48 0.24,0.6 l 1.68,0"
         style="fill:#ffffff;fill-opacity:1;fill-rule:evenodd;stroke:none"
         id="path664"
         inkscape:connector-curvature="0" />
      <path
         d="m 196.92,608.4804 c 0,-0.6 -0.48,-1.08 -0.96,-1.08 -0.6,0 -1.08,0.48 -1.08,1.08 0,0.6 0.48,0.96 1.08,0.96 C 196.44,609.4404 196.92,609.0804 196.92,608.4804 z m -3.72,0 c 0,-0.6 -0.48,-1.08 -1.08,-1.08 -0.6,0 -1.08,0.48 -1.08,1.08 0,0.6 0.48,0.96 1.08,0.96 C 192.72,609.4404 193.2,609.0804 193.2,608.4804 z m -3,0 c 0,-0.6 -0.48,-1.08 -0.96,-1.08 -0.6,0 -1.08,0.48 -1.08,1.08 0,0.6 0.48,0.96 1.08,0.96 C 189.72,609.4404 190.2,609.0804 190.2,608.4804 z m -13.2,0 c 0,-0.6 -0.36,-1.08 -0.96,-1.08 -0.6,0 -1.08,0.48 -1.08,1.08 0,0.6 0.48,0.96 1.08,0.96 C 176.64,609.4404 177,609.0804 177,608.4804 z m 3.84,0 c 0,-0.6 -0.48,-1.08 -1.08,-1.08 -0.48,0 -0.96,0.48 -0.96,1.08 0,0.6 0.48,0.96 0.96,0.96 C 180.36,609.4404 180.84,609.0804 180.84,608.4804 z m 2.88,0 c 0,-0.6 -0.36,-1.08 -0.96,-1.08 -0.6,0 -1.08,0.48 -1.08,1.08 0,0.6 0.48,0.96 1.08,0.96 C 183.36,609.4404 183.72,609.0804 183.72,608.4804 z m 3.24,0 c 0,-0.6 -0.36,-1.08 -0.96,-1.08 -0.6,0 -1.08,0.48 -1.08,1.08 0,0.6 0.48,0.96 1.08,0.96 C 186.6,609.4404 186.96,609.0804 186.96,608.4804 z m 7.32,-2.16 c 0.12,0.24 0.48,0.36 0.72,0.36 0.36,0 0.6,-0.12 0.84,-0.36 L 194.28,606.3204 z m -3.48,0 c 0.12,0.24 0.48,0.36 0.72,0.36 0.36,0 0.6,-0.12 0.84,-0.36 L 190.8,606.3204 z m -3,0 c 0.24,0.24 0.48,0.36 0.84,0.36 0.24,0 0.6,-0.12 0.72,-0.36 L 187.8,606.3204 z m -2.64,0 c 0.24,0.24 0.48,0.36 0.84,0.36 0.24,0 0.6,-0.12 0.72,-0.36 L 185.16,606.3204 z m -2.64,0 c 0.24,0.24 0.48,0.36 0.84,0.36 0.36,0 0.6,-0.12 0.72,-0.36 L 182.52,606.3204 z m -2.88,0 c 0.12,0.24 0.48,0.36 0.72,0.36 0.36,0 0.6,-0.12 0.84,-0.36 L 179.64,606.3204 z m -3.6,0 c 0.24,0.24 0.48,0.36 0.84,0.36 0.36,0 0.6,-0.12 0.84,-0.36 L 176.04,606.3204 z m 22.32,5.04 c 0,-0.48 -0.48,-0.84 -0.96,-0.84 -0.48,0 -0.96,0.36 -0.96,0.84 L 198.36,611.3604 z m -4.08,0 c -0.12,-0.48 -0.48,-0.84 -0.96,-0.84 -0.48,0 -0.96,0.36 -1.08,0.84 L 194.28,611.3604 z m -3.24,0 c -0.12,-0.48 -0.48,-0.84 -0.96,-0.84 -0.48,0 -0.96,0.36 -0.96,0.84 L 191.04,611.3604 z m -4.08,0 c -0.12,-0.48 -0.48,-0.84 -0.96,-0.84 -0.48,0 -0.96,0.36 -1.08,0.84 L 186.96,611.3604 z m -4.08,0 c -0.12,-0.48 -0.48,-0.84 -0.96,-0.84 -0.48,0 -0.96,0.36 -1.08,0.84 L 182.88,611.3604 z m -3.24,0 c -0.12,-0.48 -0.48,-0.84 -0.96,-0.84 -0.48,0 -0.96,0.36 -1.08,0.84 L 179.64,611.3604 z m -4.08,0 c -0.12,-0.48 -0.48,-0.84 -0.96,-0.84 -0.6,0 -0.96,0.36 -1.08,0.84 l 2.04,0"
         style="fill:#ffffff;fill-opacity:1;fill-rule:evenodd;stroke:none"
         id="path666"
         inkscape:connector-curvature="0" />
      <path
         d="m 196.44,611.3604 c -0.12,0 -0.12,0.12 -0.12,0.24 0,0.48 0.48,0.96 1.08,0.96 0.6,0 1.08,-0.48 1.08,-0.96 0,-0.12 0,-0.24 -0.12,-0.24 L 196.44,611.3604 z m -4.2,0 c 0,0 0,0.12 0,0.24 0,0.48 0.48,0.96 1.08,0.96 0.48,0 0.96,-0.48 0.96,-0.96 0,-0.12 0,-0.24 0,-0.24 L 192.24,611.3604 z m -3.12,0 c -0.12,0 -0.12,0.12 -0.12,0.24 0,0.48 0.48,0.96 1.08,0.96 0.6,0 1.08,-0.48 1.08,-0.96 0,-0.12 -0.12,-0.24 -0.12,-0.24 L 189.12,611.3604 z m -4.2,0 c 0,0 0,0.12 0,0.24 0,0.48 0.48,0.96 1.08,0.96 0.6,0 0.96,-0.48 0.96,-0.96 0,-0.12 0,-0.24 0,-0.24 L 184.92,611.3604 z m -4.08,0 c 0,0 0,0.12 0,0.24 0,0.48 0.48,0.96 1.08,0.96 0.48,0 0.96,-0.48 0.96,-0.96 0,-0.12 0,-0.24 0,-0.24 L 180.84,611.3604 z m -3.24,0 c 0,0 0,0.12 0,0.24 0,0.48 0.48,0.96 1.08,0.96 0.6,0 0.96,-0.48 0.96,-0.96 0,-0.12 0,-0.24 0,-0.24 L 177.6,611.3604 z m -4.08,0 c 0,0 0,0.12 0,0.24 0,0.48 0.48,0.96 1.08,0.96 0.48,0 0.96,-0.48 0.96,-0.96 0,-0.12 0,-0.24 0,-0.24 l -2.04,0"
         style="fill:#ffffff;fill-opacity:1;fill-rule:evenodd;stroke:none"
         id="path668"
         inkscape:connector-curvature="0" />
      <path
         d="m 178.32,615.0804 c 0,-0.6 -0.36,-1.08 -0.96,-1.08 -0.6,0 -1.08,0.48 -1.08,1.08 0,0.48 0.48,0.96 1.08,0.96 C 177.96,616.0404 178.32,615.5604 178.32,615.0804 z m 17.28,0 c 0,-0.6 -0.48,-1.08 -1.08,-1.08 -0.48,0 -0.96,0.48 -0.96,1.08 0,0.48 0.48,0.96 0.96,0.96 C 195.12,616.0404 195.6,615.5604 195.6,615.0804 z m 1.08,9 c -0.36,0.48 -0.84,1.08 -1.32,1.56 -1.08,1.08 -2.16,1.92 -3.48,2.52 0.48,-0.84 0.6,-1.8 0.6,-2.64 0,-3.72 -3,-6.6 -6.6,-6.6 -3.72,0 -6.6,2.88 -6.6,6.6 0,0.84 0.12,1.68 0.36,2.4 -1.8,-0.96 -3.24,-2.28 -4.44,-4.08 0.48,-0.72 1.2,-1.56 1.92,-2.16 2.28,-2.16 5.16,-3 8.28,-3.24 1.56,0 3,0.12 4.56,0.6 C 192.72,619.8804 195,621.8004 196.68,624.0804 z m 4.56,0 0,-0.36 c -3.6,-5.76 -8.64,-9.12 -15.36,-9.12 -7.56,0.12 -12.24,3.84 -15.24,9.12 l -0.12,0.24 0.12,0.12 c 2.88,5.52 8.76,9.24 15.36,9.36 C 192,633.2004 197.64,630.5604 201.24,624.0804 z m -12.6,2.76 c -0.24,0.6 -0.96,1.08 -1.44,1.32 -1.92,0.84 -3.84,-0.12 -4.32,-2.04 -0.24,-1.2 0.12,-2.04 0.96,-3 1.08,-0.72 2.4,-0.96 3.6,-0.24 C 188.76,623.7204 189.24,625.4004 188.64,626.8404 z m 15.24,-7.68 c 0,-0.6 -0.48,-1.08 -1.08,-1.08 -0.6,0 -0.96,0.48 -0.96,1.08 0,0.6 0.36,0.96 0.96,0.96 C 203.4,620.1204 203.88,619.7604 203.88,619.1604 z m -3.48,-4.08 c 0,-0.6 -0.48,-1.08 -0.96,-1.08 -0.6,0 -1.08,0.48 -1.08,1.08 0,0.48 0.48,0.96 1.08,0.96 C 199.92,616.0404 200.4,615.5604 200.4,615.0804 z m -30.24,4.08 c 0,-0.6 -0.48,-1.08 -1.08,-1.08 -0.48,0 -0.96,0.48 -0.96,1.08 0,0.6 0.48,0.96 0.96,0.96 C 169.68,620.1204 170.16,619.7604 170.16,619.1604 z m 3.36,-4.08 c 0,-0.6 -0.36,-1.08 -0.96,-1.08 -0.6,0 -1.08,0.48 -1.08,1.08 0,0.48 0.48,0.96 1.08,0.96 0.6,0 0.96,-0.48 0.96,-0.96"
         style="fill:#ffffff;fill-opacity:1;fill-rule:evenodd;stroke:none"
         id="path670"
         inkscape:connector-curvature="0" />
      <path
         d="m 201.24,624.0804 0,-0.36 c -3.6,-5.76 -8.64,-9.12 -15.36,-9.12 -7.56,0.12 -12.24,3.84 -15.24,9.12 l -0.12,0.24 0.12,0.12 c 2.88,5.52 8.76,9.24 15.36,9.36 C 192,633.2004 197.64,630.5604 201.24,624.0804 Z"
         style="fill:none;stroke:#1ea366;stroke-width:1.56199193;stroke-linecap:butt;stroke-linejoin:miter;stroke-miterlimit:3;stroke-opacity:1;stroke-dasharray:none"
         id="path672"
         inkscape:connector-curvature="0" />
      <path
         d="m 196.68,624.0804 c -0.36,0.48 -0.84,1.08 -1.32,1.56 -1.08,1.08 -2.16,1.92 -3.48,2.52 0.48,-0.84 0.6,-1.8 0.6,-2.64 0,-3.72 -3,-6.6 -6.6,-6.6 -3.72,0 -6.6,2.88 -6.6,6.6 0,0.84 0.12,1.68 0.36,2.4 -1.8,-0.96 -3.24,-2.28 -4.44,-4.08 0.48,-0.72 1.2,-1.56 1.92,-2.16 2.28,-2.16 5.16,-3 8.28,-3.24 1.56,0 3,0.12 4.56,0.6 C 192.72,619.8804 195,621.8004 196.68,624.0804 z m -8.04,2.76 c -0.24,0.6 -0.96,1.08 -1.44,1.32 -1.92,0.84 -3.84,-0.12 -4.32,-2.04 -0.24,-1.2 0.12,-2.04 0.96,-3 1.08,-0.72 2.4,-0.96 3.6,-0.24 1.32,0.84 1.8,2.52 1.2,3.96"
         style="fill:#1ea366;fill-opacity:1;fill-rule:evenodd;stroke:none"
         id="path674"
         inkscape:connector-curvature="0" />
      <path
         d="m 196.68,624.0804 c -0.36,0.48 -0.84,1.08 -1.32,1.56 -1.08,1.08 -2.16,1.92 -3.48,2.52 0.48,-0.84 0.6,-1.8 0.6,-2.64 0,-3.72 -3,-6.6 -6.6,-6.6 -3.72,0 -6.6,2.88 -6.6,6.6 0,0.84 0.12,1.68 0.36,2.4 -1.8,-0.96 -3.24,-2.28 -4.44,-4.08 0.48,-0.72 1.2,-1.56 1.92,-2.16 2.28,-2.16 5.16,-3 8.28,-3.24 1.56,0 3,0.12 4.56,0.6 2.76,0.84 5.04,2.76 6.72,5.04"
         style="fill:none;stroke:#1ea366;stroke-width:0.311988;stroke-linecap:butt;stroke-linejoin:miter;stroke-miterlimit:3;stroke-opacity:1;stroke-dasharray:none"
         id="path676"
         inkscape:connector-curvature="0" />
      <path
         d="m 188.64,626.8404 c -0.24,0.6 -0.96,1.08 -1.44,1.32 -1.92,0.84 -3.84,-0.12 -4.32,-2.04 -0.24,-1.2 0.12,-2.04 0.96,-3 1.08,-0.72 2.4,-0.96 3.6,-0.24 C 188.76,623.7204 189.24,625.4004 188.64,626.8404 Z"
         style="fill:none;stroke:#1ea366;stroke-width:0.311988;stroke-linecap:butt;stroke-linejoin:miter;stroke-miterlimit:3;stroke-opacity:1;stroke-dasharray:none"
         id="path678"
         inkscape:connector-curvature="0" />
      <path
         d="m 178.44,615.0804 c 0,-0.6 -0.48,-1.08 -1.08,-1.08 -0.6,0 -1.08,0.48 -1.08,1.08 0,0.6 0.48,1.08 1.08,1.08 0.6,0 1.08,-0.48 1.08,-1.08"
         style="fill:#ffffff;fill-opacity:1;fill-rule:evenodd;stroke:none"
         id="path680"
         inkscape:connector-curvature="0" />
      <path
         d="m 195.6,615.0804 c 0,-0.6 -0.48,-1.08 -1.08,-1.08 -0.6,0 -1.08,0.48 -1.08,1.08 0,0.6 0.48,1.08 1.08,1.08 0.6,0 1.08,-0.48 1.08,-1.08"
         style="fill:#ffffff;fill-opacity:1;fill-rule:evenodd;stroke:none"
         id="path682"
         inkscape:connector-curvature="0" />
      <path
         d="m 209.52,633.4404 5.28,0 0,-5.28 5.4,0 0,-5.28 -5.4,0 0,-5.4 -5.28,0 0,5.4 -5.28,0 0,5.28 5.28,0 0,5.28"
         style="fill:#ffffff;fill-opacity:1;fill-rule:evenodd;stroke:none"
         id="path684"
         inkscape:connector-curvature="0" />
    </g>
  </g>
</svg>
