<?xml version="1.0" encoding="UTF-8" standalone="no"?>
<!-- Created with Inkscape (http://www.inkscape.org/) -->

<svg
   xmlns:dc="http://purl.org/dc/elements/1.1/"
   xmlns:cc="http://creativecommons.org/ns#"
   xmlns:rdf="http://www.w3.org/1999/02/22-rdf-syntax-ns#"
   xmlns:svg="http://www.w3.org/2000/svg"
   xmlns="http://www.w3.org/2000/svg"
   xmlns:sodipodi="http://sodipodi.sourceforge.net/DTD/sodipodi-0.dtd"
   xmlns:inkscape="http://www.inkscape.org/namespaces/inkscape"
   width="79.349998"
   height="79.349998"
   id="svg12503"
   version="1.1"
   inkscape:version="0.48+devel r11964"
   sodipodi:docname="E012.svg">
    <title
     id="title16">EN ISO 7010:2012</title>
     <defs
     id="defs12505" />
  <sodipodi:namedview
     id="base"
     pagecolor="#ffffff"
     bordercolor="#666666"
     borderopacity="1.0"
     inkscape:pageopacity="0.0"
     inkscape:pageshadow="2"
     inkscape:zoom="0.35"
     inkscape:cx="39.675"
     inkscape:cy="39.675017"
     inkscape:document-units="px"
     inkscape:current-layer="layer1"
     showgrid="false"
     inkscape:window-width="474"
     inkscape:window-height="415"
     inkscape:window-x="49"
     inkscape:window-y="24"
     inkscape:window-maximized="0"
     fit-margin-top="0"
     fit-margin-left="0"
     fit-margin-right="0"
     fit-margin-bottom="0"
     showborder="false" />
  <metadata
     id="metadata12508">
    <rdf:RDF>
      <cc:Work
         rdf:about="">
        <dc:format>image/svg+xml</dc:format>
        <dc:type
           rdf:resource="http://purl.org/dc/dcmitype/StillImage" />
        <dc:title>EN ISO 7010:2012</dc:title>
        <cc:license
           rdf:resource="http://creativecommons.org/licenses/publicdomain/" />
        <dc:creator>
          <cc:Agent>
            <dc:title></dc:title>
          </cc:Agent>
        </dc:creator>
        <dc:source>www.veiligheidspictogrammen.be</dc:source>
      </cc:Work>
      <cc:License
         rdf:about="http://creativecommons.org/licenses/publicdomain/">
        <cc:permits
           rdf:resource="http://creativecommons.org/ns#Reproduction" />
        <cc:permits
           rdf:resource="http://creativecommons.org/ns#Distribution" />
        <cc:permits
           rdf:resource="http://creativecommons.org/ns#DerivativeWorks" />
      </cc:License>
    </rdf:RDF>
  </metadata>
  <g
     inkscape:label="Layer 1"
     inkscape:groupmode="layer"
     id="layer1"
     transform="translate(-335.325,-492.6872)">
    <g
       transform="matrix(1.25,0,0,-1.25,132.375,1152.6377)"
       id="g12412">
      <path
         d="m 162.36,464.4804 63.48,0 0,63.48 -63.48,0 L 162.36,464.4804 Z"
         style="fill:#1ea366;fill-opacity:1;fill-rule:evenodd;stroke:none"
         id="path1072"
         inkscape:connector-curvature="0" />
      <path
         d="m 186.6,511.7604 0,0.36 -0.12,0.12 -0.12,0.12 0,0.12 -0.12,0 -0.12,0.12 -0.24,0 -0.12,0.12 -0.12,-0.12 -0.24,0 -0.12,-0.12 -0.12,0 -0.12,-0.12 -0.12,-0.12 0,-0.12 -0.12,-0.12 0,-0.48 0.12,-0.12 0,-0.12 0.12,-0.12 0.12,-0.12 0.12,0 0.12,-0.12 0.12,0 0.12,-0.12 0.24,0 0.12,0.12 0.12,0 0.12,0.12 0.12,0 0,0.12 0.12,0.12 0.12,0.12 0,0.36"
         style="fill:#ffffff;fill-opacity:1;fill-rule:evenodd;stroke:none"
         id="path1074"
         inkscape:connector-curvature="0" />
      <path
         d="m 186.6,508.8804 0,0.48 -0.12,0 -0.12,0.12 0,0.12 -0.12,0.12 -0.12,0 -0.12,0.12 -0.48,0 -0.12,-0.12 -0.12,0 -0.12,-0.12 -0.12,-0.12 -0.12,-0.12 0,0 -0.12,-0.12 0,-0.6 0.12,-0.12 0,-0.12 0.12,-0.12 0.12,0 0.12,-0.12 0.12,0 0.12,-0.12 0.48,0 0.12,0.12 0.12,0 0.12,0.12 0,0 0.12,0.12 0.12,0.12 0,0.36"
         style="fill:#ffffff;fill-opacity:1;fill-rule:evenodd;stroke:none"
         id="path1076"
         inkscape:connector-curvature="0" />
      <path
         d="m 191.52,503.4804 0,0.24 -0.12,0.24 0,0 -0.12,0.12 -0.12,0.12 -0.12,0.12 -0.12,0 -0.12,0.12 -0.48,0 -0.12,-0.12 -0.12,0 -0.12,-0.12 0,-0.12 -0.12,-0.12 -0.12,0 0,-0.84 0.12,-0.12 0.12,-0.12 0,0 0.12,-0.12 0.12,0 0.12,-0.12 0.48,0 0.12,0.12 0.12,0 0.12,0.12 0.12,0 0.12,0.12 0,0.12 0.12,0.12 0,0.24"
         style="fill:#ffffff;fill-opacity:1;fill-rule:evenodd;stroke:none"
         id="path1078"
         inkscape:connector-curvature="0" />
      <path
         d="m 190.8,506.2404 0,0.48 -0.12,0 0,0.12 -0.12,0.12 -0.12,0.12 -0.12,0 -0.12,0.12 -0.48,0 -0.12,-0.12 -0.12,0 -0.12,-0.12 -0.12,-0.12 -0.12,-0.12 0,-0.12 -0.12,-0.24 0,-0.24 0.12,-0.12 0,-0.24 0.12,-0.12 0.12,0 0.12,-0.12 0.12,0 0.12,-0.12 0.48,0 0.12,0.12 0.12,0 0.12,0.12 0.12,0 0,0.12 0.12,0.12 0,0.36"
         style="fill:#ffffff;fill-opacity:1;fill-rule:evenodd;stroke:none"
         id="path1080"
         inkscape:connector-curvature="0" />
      <path
         d="m 190.2,509.0004 0,0.36 -0.12,0.12 0,0.12 -0.12,0 -0.12,0.12 -0.12,0.12 0,0 -0.24,0.12 -0.48,0 -0.12,-0.12 -0.12,0 -0.12,-0.12 0,-0.12 -0.12,0 -0.12,-0.12 0,-0.84 0.12,-0.12 0.12,-0.12 0,0 0.12,-0.12 0.12,0 0.12,-0.12 0.48,0 0.24,0.12 0,0 0.12,0.12 0.12,0 0.12,0.12 0,0.12 0.12,0.12 0,0.24"
         style="fill:#ffffff;fill-opacity:1;fill-rule:evenodd;stroke:none"
         id="path1082"
         inkscape:connector-curvature="0" />
      <path
         d="m 189.48,511.7604 0,0.48 -0.12,0.12 0,0 -0.12,0.12 -0.12,0.12 -0.12,0 -0.12,0.12 -0.48,0 -0.12,-0.12 -0.12,0 -0.12,-0.12 -0.12,-0.12 0,0 -0.12,-0.12 0,-0.12 -0.12,-0.12 0,-0.36 0.12,-0.12 0,-0.12 0.12,-0.12 0,0 0.12,-0.12 0.12,-0.12 0.12,0 0.12,-0.12 0.48,0 0.12,0.12 0.12,0 0.12,0.12 0.12,0.12 0,0 0.12,0.12 0,0.36"
         style="fill:#ffffff;fill-opacity:1;fill-rule:evenodd;stroke:none"
         id="path1084"
         inkscape:connector-curvature="0" />
      <path
         d="m 183.72,511.7604 0,0.36 -0.12,0.12 0,0.12 -0.12,0 -0.12,0.12 0,0.12 -0.12,0 -0.12,0.12 -0.6,0 -0.12,-0.12 -0.12,0 -0.12,-0.12 0,-0.12 -0.12,0 0,-0.12 -0.12,-0.12 0,-0.6 0.12,-0.12 0,-0.12 0.12,0 0,-0.12 0.12,-0.12 0.12,0 0.12,-0.12 0.6,0 0.12,0.12 0.12,0 0,0.12 0.12,0.12 0.12,0 0,0.12 0.12,0.12 0,0.24"
         style="fill:#ffffff;fill-opacity:1;fill-rule:evenodd;stroke:none"
         id="path1086"
         inkscape:connector-curvature="0" />
      <path
         d="m 183.12,509.0004 -0.12,0.24 0,0.24 -0.12,0.12 0,0 -0.12,0.12 -0.12,0.12 -0.12,0 -0.12,0.12 -0.48,0 -0.12,-0.12 -0.12,0 -0.12,-0.12 -0.12,-0.12 0,0 -0.12,-0.12 0,-0.12 -0.12,-0.12 0,-0.36 0.12,-0.12 0,-0.12 0.12,-0.12 0,-0.12 0.12,0 0.12,-0.12 0.12,0 0.12,-0.12 0.48,0 0.12,0.12 0.12,0 0.12,0.12 0.12,0 0,0.12 0.12,0.12 0,0.24 0.12,0.12"
         style="fill:#ffffff;fill-opacity:1;fill-rule:evenodd;stroke:none"
         id="path1088"
         inkscape:connector-curvature="0" />
      <path
         d="m 182.4,506.2404 0,0.36 -0.12,0.12 0,0 -0.12,0.12 -0.12,0.12 0,0.12 -0.12,0 -0.12,0.12 -0.6,0 -0.12,-0.12 -0.12,0 0,-0.12 -0.12,-0.12 -0.12,-0.12 0,0 -0.12,-0.12 0,-0.6 0.12,-0.12 0,-0.12 0.12,-0.12 0.12,0 0,-0.12 0.12,0 0.12,-0.12 0.6,0 0.12,0.12 0.12,0 0,0.12 0.12,0 0.12,0.12 0,0.12 0.12,0.12 0,0.24"
         style="fill:#ffffff;fill-opacity:1;fill-rule:evenodd;stroke:none"
         id="path1090"
         inkscape:connector-curvature="0" />
      <path
         d="m 181.8,503.4804 0,0.12 -0.12,0.12 0,0.24 -0.12,0 0,0.12 -0.12,0.12 -0.12,0.12 -0.12,0 -0.12,0.12 -0.48,0 -0.12,-0.12 -0.12,0 -0.12,-0.12 -0.12,-0.12 0,-0.12 -0.12,0 0,-0.36 -0.12,-0.12 0.12,-0.12 0,-0.24 0.12,-0.12 0,-0.12 0.12,0 0.12,-0.12 0.12,0 0.12,-0.12 0.48,0 0.12,0.12 0.12,0 0.12,0.12 0.12,0 0,0.12 0.12,0.12 0,0.12 0.12,0.12 0,0.12"
         style="fill:#ffffff;fill-opacity:1;fill-rule:evenodd;stroke:none"
         id="path1092"
         inkscape:connector-curvature="0" />
      <path
         d="m 200.28,490.7604 0,0.36 -0.12,0.12 -0.12,0 0,0.12 -0.12,0.12 -0.12,0 -0.12,0.12 -0.48,0 -0.24,-0.12 0,0 -0.12,-0.12 -0.12,-0.12 -0.12,0 0,-0.12 -0.12,-0.12 0,-0.6 0.12,-0.12 0,-0.12 0.12,0 0.12,-0.12 0.12,-0.12 0,0 0.24,-0.12 0.48,0 0.12,0.12 0.12,0 0.12,0.12 0,0.12 0.12,0 0.12,0.12 0,0.48"
         style="fill:#ffffff;fill-opacity:1;fill-rule:evenodd;stroke:none"
         id="path1094"
         inkscape:connector-curvature="0" />
      <path
         d="m 199.32,493.4004 0,0.12 -0.12,0.12 0,0.12 -0.12,0.12 0,0.12 -0.12,0 -0.12,0.12 -0.12,0 -0.12,0.12 -0.48,0 -0.12,-0.12 -0.12,0 -0.12,-0.12 -0.12,0 0,-0.12 -0.12,-0.12 0,-0.84 0.12,0 0,-0.12 0.12,-0.12 0.12,-0.12 0.12,0 0.12,-0.12 0.48,0 0.12,0.12 0.12,0 0.12,0.12 0.12,0.12 0,0.12 0.12,0 0,0.12 0.12,0.24 0,0.12"
         style="fill:#ffffff;fill-opacity:1;fill-rule:evenodd;stroke:none"
         id="path1096"
         inkscape:connector-curvature="0" />
      <path
         d="m 198.24,496.0404 0,0.36 -0.12,0.12 -0.12,0.12 0,0 -0.12,0.12 -0.12,0.12 -0.84,0 0,-0.12 -0.12,-0.12 -0.12,0 -0.12,-0.12 0,-0.12 -0.12,-0.12 0,-0.48 0.12,-0.12 0,-0.12 0.12,-0.12 0.12,-0.12 0.12,-0.12 0,0 0.24,-0.12 0.48,0 0.12,0.12 0.12,0 0.12,0.12 0,0.12 0.12,0.12 0.12,0.12 0,0.36"
         style="fill:#ffffff;fill-opacity:1;fill-rule:evenodd;stroke:none"
         id="path1098"
         inkscape:connector-curvature="0" />
      <path
         d="m 197.28,498.6804 0,0.12 -0.12,0.12 0,0.24 -0.12,0.12 -0.12,0.12 -0.12,0 -0.12,0.12 -0.72,0 -0.12,-0.12 -0.12,0 -0.12,-0.12 0,-0.12 -0.12,-0.12 0,-0.72 0.12,-0.12 0,-0.12 0.12,-0.12 0.12,-0.12 0.24,0 0.12,-0.12 0.24,0 0.12,0.12 0.24,0 0.12,0.12 0.12,0.12 0.12,0.12 0,0.24 0.12,0.12 0,0.12"
         style="fill:#ffffff;fill-opacity:1;fill-rule:evenodd;stroke:none"
         id="path1100"
         inkscape:connector-curvature="0" />
      <path
         d="m 196.2,501.3204 0,0.36 -0.12,0.12 -0.12,0.12 0,0.12 -0.12,0 -0.12,0.12 -0.24,0 -0.12,0.12 -0.12,-0.12 -0.36,0 0,-0.12 -0.12,0 -0.12,-0.12 -0.12,-0.12 0,-0.12 -0.12,-0.12 0,-0.48 0.12,-0.12 0,-0.12 0.12,-0.12 0.12,-0.12 0.12,0 0,-0.12 0.24,0 0.12,-0.12 0.24,0 0.12,0.12 0.12,0 0.12,0.12 0.12,0 0,0.12 0.12,0.12 0.12,0.12 0,0.36"
         style="fill:#ffffff;fill-opacity:1;fill-rule:evenodd;stroke:none"
         id="path1102"
         inkscape:connector-curvature="0" />
      <path
         d="m 195.24,503.9604 0,0.12 -0.12,0.12 0,0.24 -0.12,0.12 -0.12,0.12 -0.12,0 -0.12,0.12 -0.12,0 -0.12,0.12 -0.24,0 -0.12,-0.12 -0.12,0 -0.12,-0.12 -0.12,0 -0.12,-0.12 0,-0.12 -0.12,-0.12 0,-0.72 0.12,-0.12 0,-0.12 0.12,-0.12 0.12,0 0.12,-0.12 0.24,0 0.12,-0.12 0.12,0.12 0.24,0 0.12,0.12 0.12,0 0.12,0.12 0.12,0.12 0,0.24 0.12,0.12 0,0.12"
         style="fill:#ffffff;fill-opacity:1;fill-rule:evenodd;stroke:none"
         id="path1104"
         inkscape:connector-curvature="0" />
      <path
         d="m 194.16,506.6004 0,0.36 -0.12,0.12 -0.12,0.12 0,0.12 -0.12,0.12 -0.24,0 -0.12,0.12 -0.24,0 -0.12,-0.12 -0.24,0 0,0 -0.12,-0.12 -0.12,-0.12 -0.12,-0.12 0,-0.12 -0.12,-0.12 0,-0.48 0.12,-0.12 0,-0.12 0.12,-0.12 0.12,-0.12 0.12,0 0,-0.12 0.84,0 0.12,0.12 0.12,0 0,0.12 0.12,0.12 0.12,0.12 0,0.36"
         style="fill:#ffffff;fill-opacity:1;fill-rule:evenodd;stroke:none"
         id="path1106"
         inkscape:connector-curvature="0" />
      <path
         d="m 193.2,509.2404 0,0.12 -0.12,0.12 0,0.24 -0.12,0.12 -0.12,0.12 -0.12,0.12 -0.12,0 -0.12,0.12 -0.48,0 -0.12,-0.12 -0.12,0 -0.12,-0.12 -0.12,-0.12 0,-0.12 -0.12,-0.12 0,-0.72 0.12,-0.12 0,-0.12 0.12,0 0.12,-0.12 0.12,-0.12 0.72,0 0.12,0.12 0.12,0.12 0.12,0 0.12,0.12 0,0.24 0.12,0.12 0,0.12"
         style="fill:#ffffff;fill-opacity:1;fill-rule:evenodd;stroke:none"
         id="path1108"
         inkscape:connector-curvature="0" />
      <path
         d="m 192.12,511.8804 0,0.48 -0.12,0 -0.12,0.12 0,0.12 -0.12,0.12 -0.12,0 -0.12,0.12 -0.48,0 -0.12,-0.12 -0.12,0 -0.12,-0.12 -0.12,-0.12 -0.12,-0.12 0,0 -0.12,-0.12 0,-0.6 0.12,-0.12 0,-0.12 0.12,-0.12 0.12,0 0.12,-0.12 0.12,0 0.12,-0.12 0.48,0 0.12,0.12 0.12,0 0.12,0.12 0,0 0.12,0.12 0.12,0.12 0,0.36"
         style="fill:#ffffff;fill-opacity:1;fill-rule:evenodd;stroke:none"
         id="path1110"
         inkscape:connector-curvature="0" />
      <path
         d="m 181.08,511.8804 0,0.48 -0.12,0 -0.12,0.12 0,0.12 -0.12,0.12 -0.12,0 -0.12,0.12 -0.48,0 -0.12,-0.12 -0.12,0 -0.12,-0.12 -0.12,-0.12 -0.12,-0.12 0,0 -0.12,-0.12 0,-0.6 0.12,-0.12 0,-0.12 0.12,-0.12 0.12,0 0.12,-0.12 0.12,0 0.12,-0.12 0.48,0 0.12,0.12 0.12,0 0.12,0.12 0,0 0.12,0.12 0.12,0.12 0,0.36"
         style="fill:#ffffff;fill-opacity:1;fill-rule:evenodd;stroke:none"
         id="path1112"
         inkscape:connector-curvature="0" />
      <path
         d="m 180.12,509.2404 0,0.12 -0.12,0.12 0,0.24 -0.12,0.12 -0.12,0.12 -0.12,0.12 -0.12,0 -0.12,0.12 -0.48,0 -0.12,-0.12 -0.12,0 -0.12,-0.12 -0.12,-0.12 0,-0.12 -0.12,-0.12 0,-0.72 0.12,-0.12 0,-0.12 0.12,0 0.12,-0.12 0.12,-0.12 0.72,0 0.12,0.12 0.12,0.12 0.12,0 0.12,0.12 0,0.24 0.12,0.12 0,0.12"
         style="fill:#ffffff;fill-opacity:1;fill-rule:evenodd;stroke:none"
         id="path1114"
         inkscape:connector-curvature="0" />
      <path
         d="m 179.04,506.6004 0,0.36 -0.12,0.12 -0.12,0.12 0,0.12 -0.12,0.12 -0.24,0 -0.12,0.12 -0.24,0 -0.12,-0.12 -0.24,0 -0.12,-0.12 -0.12,-0.12 -0.12,-0.12 0,-0.12 -0.12,-0.12 0,-0.48 0.12,-0.12 0,-0.12 0.12,-0.12 0.12,-0.12 0.12,0 0.12,-0.12 0.72,0 0.12,0.12 0.12,0 0,0.12 0.12,0.12 0.12,0.12 0,0.36"
         style="fill:#ffffff;fill-opacity:1;fill-rule:evenodd;stroke:none"
         id="path1116"
         inkscape:connector-curvature="0" />
      <path
         d="m 178.08,503.9604 0,0.12 -0.12,0.12 0,0.24 -0.12,0.12 -0.12,0.12 -0.12,0 -0.12,0.12 -0.12,0 -0.12,0.12 -0.24,0 -0.12,-0.12 -0.12,0 -0.12,-0.12 -0.12,0 -0.12,-0.12 0,-0.12 -0.12,-0.12 0,-0.72 0.12,-0.12 0,-0.12 0.12,-0.12 0.12,0 0.12,-0.12 0.24,0 0.12,-0.12 0.12,0.12 0.24,0 0.12,0.12 0.12,0 0.12,0.12 0.12,0.12 0,0.24 0.12,0.12 0,0.12"
         style="fill:#ffffff;fill-opacity:1;fill-rule:evenodd;stroke:none"
         id="path1118"
         inkscape:connector-curvature="0" />
      <path
         d="m 177,501.3204 0,0.36 -0.12,0.12 -0.12,0.12 0,0.12 -0.12,0 -0.12,0.12 -0.24,0 -0.12,0.12 -0.12,-0.12 -0.24,0 -0.12,-0.12 -0.12,0 -0.12,-0.12 -0.12,-0.12 0,-0.12 -0.12,-0.12 0,-0.48 0.12,-0.12 0,-0.12 0.12,-0.12 0.12,-0.12 0.12,0 0.12,-0.12 0.12,0 0.12,-0.12 0.24,0 0.12,0.12 0.12,0 0.12,0.12 0.12,0 0,0.12 0.12,0.12 0.12,0.12 0,0.36"
         style="fill:#ffffff;fill-opacity:1;fill-rule:evenodd;stroke:none"
         id="path1120"
         inkscape:connector-curvature="0" />
      <path
         d="m 176.04,498.6804 0,0.12 -0.12,0.12 0,0.24 -0.12,0.12 -0.12,0.12 -0.12,0 -0.12,0.12 -0.72,0 -0.12,-0.12 -0.12,0 -0.12,-0.12 0,-0.12 -0.12,-0.12 0,-0.72 0.12,-0.12 0,-0.12 0.12,-0.12 0.12,-0.12 0.24,0 0.12,-0.12 0.24,0 0.12,0.12 0.24,0 0.12,0.12 0.12,0.12 0.12,0.12 0,0.24 0.12,0.12 0,0.12"
         style="fill:#ffffff;fill-opacity:1;fill-rule:evenodd;stroke:none"
         id="path1122"
         inkscape:connector-curvature="0" />
      <path
         d="m 174.96,496.0404 0,0.36 -0.12,0.12 -0.12,0.12 0,0 -0.12,0.12 -0.12,0.12 -0.72,0 -0.12,-0.12 -0.12,-0.12 -0.12,0 -0.12,-0.12 0,-0.12 -0.12,-0.12 0,-0.48 0.12,-0.12 0,-0.12 0.12,-0.12 0.12,-0.12 0.12,-0.12 0.12,0 0.12,-0.12 0.48,0 0.12,0.12 0.12,0 0.12,0.12 0,0.12 0.12,0.12 0.12,0.12 0,0.36"
         style="fill:#ffffff;fill-opacity:1;fill-rule:evenodd;stroke:none"
         id="path1124"
         inkscape:connector-curvature="0" />
      <path
         d="m 174,493.4004 0,0.12 -0.12,0.12 0,0.24 -0.12,0.12 -0.12,0 -0.12,0.12 -0.12,0 -0.12,0.12 -0.48,0 -0.12,-0.12 -0.12,0 -0.12,-0.12 -0.12,0 0,-0.12 -0.12,-0.12 0,-0.84 0.12,0 0,-0.12 0.12,-0.12 0.12,-0.12 0.12,0 0.12,-0.12 0.48,0 0.12,0.12 0.12,0 0.12,0.12 0.12,0.12 0.12,0.12 0,0.12 0.12,0.24 0,0.12"
         style="fill:#ffffff;fill-opacity:1;fill-rule:evenodd;stroke:none"
         id="path1126"
         inkscape:connector-curvature="0" />
      <path
         d="m 188.88,514.6404 0,0.24 -0.12,0.12 0,0.12 -0.12,0 -0.12,0.12 -0.12,0.12 0,0 -0.12,0.12 -0.6,0 -0.12,-0.12 -0.12,0 -0.12,-0.12 0,-0.12 -0.12,0 0,-0.12 -0.12,-0.12 0,-0.6 0.12,-0.12 0,-0.12 0.12,0 0,-0.12 0.12,-0.12 0.12,0 0.12,-0.12 0.6,0 0.12,0.12 0,0 0.12,0.12 0.12,0.12 0.12,0 0,0.12 0.12,0.12 0,0.36"
         style="fill:#ffffff;fill-opacity:1;fill-rule:evenodd;stroke:none"
         id="path1128"
         inkscape:connector-curvature="0" />
      <path
         d="m 186.6,514.6404 0,0.36 -0.12,0.12 -0.12,0 0,0.12 -0.12,0.12 -0.12,0 -0.12,0.12 -0.48,0 -0.12,-0.12 -0.12,0 -0.12,-0.12 -0.12,-0.12 -0.12,0 0,-0.12 -0.12,-0.12 0,-0.6 0.12,-0.12 0,-0.12 0.12,0 0.12,-0.12 0.12,-0.12 0.12,0 0.12,-0.12 0.48,0 0.12,0.12 0.12,0 0.12,0.12 0,0.12 0.12,0 0.12,0.12 0,0.48"
         style="fill:#ffffff;fill-opacity:1;fill-rule:evenodd;stroke:none"
         id="path1130"
         inkscape:connector-curvature="0" />
      <path
         d="m 184.32,514.6404 0,0.36 -0.12,0.12 0,0 -0.12,0.12 -0.12,0.12 -0.12,0 -0.12,0.12 -0.48,0 -0.12,-0.12 -0.12,0 -0.12,-0.12 -0.12,-0.12 0,0 -0.12,-0.12 0,-0.12 -0.12,-0.12 0,-0.36 0.12,-0.12 0,-0.12 0.12,-0.12 0,0 0.12,-0.12 0.12,-0.12 0.12,0 0.12,-0.12 0.48,0 0.12,0.12 0.12,0 0.12,0.12 0.12,0.12 0,0 0.12,0.12 0,0.48"
         style="fill:#ffffff;fill-opacity:1;fill-rule:evenodd;stroke:none"
         id="path1132"
         inkscape:connector-curvature="0" />
      <path
         d="m 191.16,514.6404 0,0.12 -0.12,0.12 0,0.24 -0.12,0 -0.12,0.12 -0.12,0.12 -0.12,0 -0.12,0.12 -0.48,0 -0.12,-0.12 -0.12,0 -0.12,-0.12 -0.12,-0.12 0,0 -0.12,-0.12 0,-0.84 0.12,-0.12 0,0 0.12,-0.12 0.12,-0.12 0.12,0 0.12,-0.12 0.48,0 0.12,0.12 0.12,0 0.12,0.12 0.12,0.12 0.12,0 0,0.24 0.12,0.12 0,0.24"
         style="fill:#ffffff;fill-opacity:1;fill-rule:evenodd;stroke:none"
         id="path1134"
         inkscape:connector-curvature="0" />
      <path
         d="m 182.16,514.6404 0,0.12 -0.12,0.12 0,0.24 -0.12,0 -0.12,0.12 -0.12,0.12 -0.12,0 -0.12,0.12 -0.48,0 -0.12,-0.12 -0.12,0 -0.12,-0.12 -0.12,-0.12 0,0 -0.12,-0.12 0,-0.84 0.12,-0.12 0,0 0.12,-0.12 0.12,-0.12 0.12,0 0.12,-0.12 0.48,0 0.12,0.12 0.12,0 0.12,0.12 0.12,0.12 0.12,0 0,0.24 0.12,0.12 0,0.24"
         style="fill:#ffffff;fill-opacity:1;fill-rule:evenodd;stroke:none"
         id="path1136"
         inkscape:connector-curvature="0" />
      <path
         d="m 172.92,490.7604 0,0.36 -0.12,0.12 -0.12,0 0,0.12 -0.12,0.12 -0.12,0 -0.12,0.12 -0.48,0 -0.12,-0.12 -0.12,0 -0.12,-0.12 -0.12,-0.12 -0.12,0 0,-0.12 -0.12,-0.12 0,-0.6 0.12,-0.12 0,-0.12 0.12,0 0.12,-0.12 0.12,-0.12 0.12,0 0.12,-0.12 0.48,0 0.12,0.12 0.12,0 0.12,0.12 0,0.12 0.12,0 0.12,0.12 0,0.48"
         style="fill:#ffffff;fill-opacity:1;fill-rule:evenodd;stroke:none"
         id="path1138"
         inkscape:connector-curvature="0" />
      <path
         d="m 191.76,515.9604 -12.12,0 0,0.36 0.12,0.24 0,0.24 0.12,0.12 0.12,0.24 0.12,0.12 0.12,0.24 0.12,0.12 0.12,0.12 0.12,0.12 0.24,0.12 0.12,0.12 0.24,0.12 0.12,0.12 0.48,0 0.12,0.12 2.28,0 0,3.72 3,0 0,-3.72 2.28,0 0.24,-0.12 0.36,0 0.24,-0.12 0.12,-0.12 0.24,-0.12 0.12,-0.12 0.12,-0.12 0.24,-0.12 0.12,-0.12 0.12,-0.24 0.12,-0.12 0,-0.24 0.12,-0.12 0.12,-0.24 0,-0.6"
         style="fill:#ffffff;fill-opacity:1;fill-rule:evenodd;stroke:none"
         id="path1140"
         inkscape:connector-curvature="0" />
      <path
         d="m 220.2,516.9204 0,-5.28 -5.4,0 0,-5.28 -5.28,0 0,5.28 -5.28,0 0,5.28 5.28,0 0,5.28 5.28,0 0,-5.28 5.4,0"
         style="fill:#ffffff;fill-opacity:1;fill-rule:evenodd;stroke:none"
         id="path1142"
         inkscape:connector-curvature="0" />
      <path
         d="m 188.4,504.6804 0,0.6 -0.12,0.24 0,0.12 -0.12,0.24 -0.12,0.24 -0.12,0.12 -0.12,0.24 -0.12,0.12 -0.24,0.12 -0.12,0.12 -0.24,0.12 -0.12,0.12 -0.24,0.12 -0.12,0 -0.24,0.12 -1.32,0 -0.12,-0.12 -0.24,0 -0.24,-0.12 -0.12,-0.12 -0.24,-0.12 -0.12,-0.12 -0.12,-0.12 -0.24,-0.12 -0.12,-0.24 -0.12,-0.12 0,-0.24 -0.12,-0.24 -0.12,-0.12 0,-0.24 -0.12,-0.24 0,-0.84 0.12,-0.12 0,-0.24 0.12,-0.24 0.12,-0.12 0,-0.24 0.12,-0.12 0.12,-0.24 0.24,-0.12 0.12,-0.12 0.12,-0.12 0.24,-0.12 0.12,-0.12 0.24,-0.12 0.24,-0.12 0.12,0 0.24,-0.12 0.84,0 0.24,0.12 0.24,0 0.12,0.12 0.24,0.12 0.12,0.12 0.24,0.12 0.12,0.12 0.24,0.12 0.12,0.12 0.12,0.24 0.12,0.12 0.12,0.24 0.12,0.12 0,0.24 0.12,0.24 0,0.6"
         style="fill:#ffffff;fill-opacity:1;fill-rule:evenodd;stroke:none"
         id="path1144"
         inkscape:connector-curvature="0" />
      <path
         d="m 188.28,501.2004 0.24,0 0.36,-0.12 0.48,0 0.24,-0.12 0.24,-0.12 0.24,-0.12 0.24,-0.12 0.24,-0.12 0.24,-0.24 0.24,-0.12 0.12,-0.24 0.24,-0.12 0.12,-0.24 0.12,-0.24 0.12,-0.24 0.12,-0.24 0.12,-0.24 0.12,-0.24 0,-0.24 0.12,-0.36 0,-11.64 -0.12,-0.12 0,-0.12 -0.12,-0.12 0,-0.12 -0.12,-0.12 -0.12,-0.12 -0.12,-0.12 -0.12,-0.12 -0.36,0 -0.12,-0.12 -0.36,0 -0.12,0.12 -0.24,0 -0.12,0.12 -0.12,0.12 -0.12,0.12 -0.12,0.12 -0.12,0.12 0,0.12 -0.12,0.12 0,0.12 -0.12,0.12 0,10.92 -0.12,0.12 -0.12,0 -0.12,0 0,-0.24 -0.12,0 0,-25.8 -0.12,-0.12 0,-0.12 -0.12,-0.12 -0.12,-0.12 -0.12,-0.12 -0.12,-0.12 -0.12,-0.12 -0.12,-0.12 -0.36,0 -0.12,-0.12 -0.36,0 -0.12,0.12 -0.36,0 -0.12,0.12 -0.12,0.12 -0.12,0.12 -0.12,0.12 -0.12,0.12 -0.12,0.12 0,0.12 -0.12,0.12 0,15.84 -0.12,0 0,0.12 -0.12,0 -0.12,0 -0.12,0 0,-15.6 -0.12,-0.24 0,-0.24 -0.12,-0.12 -0.12,-0.12 -0.12,-0.12 -0.12,-0.12 -0.12,-0.12 -0.12,-0.12 -0.12,-0.12 -0.36,0 -0.12,-0.12 -0.36,0 -0.12,0.12 -0.24,0 -0.24,0.12 -0.12,0.12 -0.12,0.12 -0.12,0.12 -0.12,0.12 0,0.12 -0.12,0.12 -0.12,0.12 0,25.92 -0.12,0 0,0.12 -0.12,0 -0.12,0 0,0 -0.12,-0.12 0,-11.04 -0.12,-0.12 0,-0.12 -0.12,-0.12 -0.12,-0.12 0,-0.12 -0.12,-0.12 -0.12,-0.12 -0.12,-0.12 -0.36,0 -0.12,-0.12 -0.36,0 -0.12,0.12 -0.24,0 -0.12,0.12 -0.12,0.12 -0.12,0.12 -0.12,0.12 -0.12,0.12 -0.12,0.12 0,0.24 -0.12,0.12 0,11.28 0.12,0.24 0,0.36 0.12,0.24 0,0.24 0.12,0.24 0.12,0.24 0.12,0.24 0.12,0.24 0.24,0.24 0.12,0.12 0.24,0.24 0.12,0.12 0.24,0.24 0.24,0.12 0.24,0.12 0.24,0.12 0.24,0.12 0.24,0.12 0.6,0 0.24,0.12 5.4,0"
         style="fill:#ffffff;fill-opacity:1;fill-rule:evenodd;stroke:none"
         id="path1146"
         inkscape:connector-curvature="0" />
      <path
         d="m 188.28,501.2004 0.24,0 0.36,-0.12 0.48,0 0.24,-0.12 0.24,-0.12 0.24,-0.12 0.24,-0.12 0.24,-0.12 0.24,-0.24 0.24,-0.12 0.12,-0.24 0.24,-0.12 0.12,-0.24 0.12,-0.24 0.12,-0.24 0.12,-0.24 0.12,-0.24 0.12,-0.24 0,-0.24 0.12,-0.36 0,-11.64 -0.12,-0.12 0,-0.12 -0.12,-0.12 0,-0.12 -0.12,-0.12 -0.12,-0.12 -0.12,-0.12 -0.12,-0.12 -0.36,0 -0.12,-0.12 -0.36,0 -0.12,0.12 -0.24,0 -0.12,0.12 -0.12,0.12 -0.12,0.12 -0.12,0.12 -0.12,0.12 0,0.12 -0.12,0.12 0,0.12 -0.12,0.12 0,10.92 -0.12,0.12 -0.12,0 -0.12,0 0,-0.24 -0.12,0 0,-25.8 -0.12,-0.12 0,-0.12 -0.12,-0.12 -0.12,-0.12 -0.12,-0.12 -0.12,-0.12 -0.12,-0.12 -0.12,-0.12 -0.36,0 -0.12,-0.12 -0.36,0 -0.12,0.12 -0.36,0 -0.12,0.12 -0.12,0.12 -0.12,0.12 -0.12,0.12 -0.12,0.12 -0.12,0.12 0,0.12 -0.12,0.12 0,15.84 -0.12,0 0,0.12 -0.12,0 -0.12,0 -0.12,0 0,-15.6 -0.12,-0.24 0,-0.24 -0.12,-0.12 -0.12,-0.12 -0.12,-0.12 -0.12,-0.12 -0.12,-0.12 -0.12,-0.12 -0.12,-0.12 -0.36,0 -0.12,-0.12 -0.36,0 -0.12,0.12 -0.24,0 -0.24,0.12 -0.12,0.12 -0.12,0.12 -0.12,0.12 -0.12,0.12 0,0.12 -0.12,0.12 -0.12,0.12 0,25.92 -0.12,0 0,0.12 -0.12,0 -0.12,0 0,0 -0.12,-0.12 0,-11.04 -0.12,-0.12 0,-0.12 -0.12,-0.12 -0.12,-0.12 0,-0.12 -0.12,-0.12 -0.12,-0.12 -0.12,-0.12 -0.36,0 -0.12,-0.12 -0.36,0 -0.12,0.12 -0.24,0 -0.12,0.12 -0.12,0.12 -0.12,0.12 -0.12,0.12 -0.12,0.12 -0.12,0.12 0,0.24 -0.12,0.12 0,11.28 0.12,0.24 0,0.36 0.12,0.24 0,0.24 0.12,0.24 0.12,0.24 0.12,0.24 0.12,0.24 0.24,0.24 0.12,0.12 0.24,0.24 0.12,0.12 0.24,0.24 0.24,0.12 0.24,0.12 0.24,0.12 0.24,0.12 0.24,0.12 0.6,0 0.24,0.12 L 188.28,501.2004 Z"
         style="fill:none;stroke:#1ea366;stroke-width:0.090996;stroke-linecap:butt;stroke-linejoin:miter;stroke-miterlimit:23;stroke-opacity:1;stroke-dasharray:none"
         id="path1148"
         inkscape:connector-curvature="0" />
    </g>
  </g>
</svg>
