<?xml version="1.0" encoding="UTF-8" standalone="no"?>
<!-- Created with Inkscape (http://www.inkscape.org/) -->

<svg
   xmlns:dc="http://purl.org/dc/elements/1.1/"
   xmlns:cc="http://creativecommons.org/ns#"
   xmlns:rdf="http://www.w3.org/1999/02/22-rdf-syntax-ns#"
   xmlns:svg="http://www.w3.org/2000/svg"
   xmlns="http://www.w3.org/2000/svg"
   xmlns:sodipodi="http://sodipodi.sourceforge.net/DTD/sodipodi-0.dtd"
   xmlns:inkscape="http://www.inkscape.org/namespaces/inkscape"
   width="79.349998"
   height="79.349998"
   id="svg12638"
   version="1.1"
   inkscape:version="0.48+devel r11964"
   sodipodi:docname="E013.svg">
    <title
     id="title16">EN ISO 7010:2012</title>
     <defs
     id="defs12640" />
  <sodipodi:namedview
     id="base"
     pagecolor="#ffffff"
     bordercolor="#666666"
     borderopacity="1.0"
     inkscape:pageopacity="0.0"
     inkscape:pageshadow="2"
     inkscape:zoom="0.35"
     inkscape:cx="39.675"
     inkscape:cy="39.675017"
     inkscape:document-units="px"
     inkscape:current-layer="layer1"
     showgrid="false"
     inkscape:window-width="474"
     inkscape:window-height="415"
     inkscape:window-x="49"
     inkscape:window-y="24"
     inkscape:window-maximized="0"
     fit-margin-top="0"
     fit-margin-left="0"
     fit-margin-right="0"
     fit-margin-bottom="0"
     showborder="false" />
  <metadata
     id="metadata12643">
    <rdf:RDF>
      <cc:Work
         rdf:about="">
        <dc:format>image/svg+xml</dc:format>
        <dc:type
           rdf:resource="http://purl.org/dc/dcmitype/StillImage" />
        <dc:title>EN ISO 7010:2012</dc:title>
        <cc:license
           rdf:resource="http://creativecommons.org/licenses/publicdomain/" />
        <dc:creator>
          <cc:Agent>
            <dc:title></dc:title>
          </cc:Agent>
        </dc:creator>
        <dc:source>www.veiligheidspictogrammen.be</dc:source>
      </cc:Work>
      <cc:License
         rdf:about="http://creativecommons.org/licenses/publicdomain/">
        <cc:permits
           rdf:resource="http://creativecommons.org/ns#Reproduction" />
        <cc:permits
           rdf:resource="http://creativecommons.org/ns#Distribution" />
        <cc:permits
           rdf:resource="http://creativecommons.org/ns#DerivativeWorks" />
      </cc:License>
    </rdf:RDF>
  </metadata>
  <g
     inkscape:label="Layer 1"
     inkscape:groupmode="layer"
     id="layer1"
     transform="translate(-335.325,-492.6872)">
    <g
       transform="matrix(1.25,0,0,-1.25,132.375,1013.4377)"
       id="g12615">
      <path
         d="m 162.36,353.1204 63.48,0 0,63.48 -63.48,0 L 162.36,353.1204 Z"
         style="fill:#1ea366;fill-opacity:1;fill-rule:evenodd;stroke:none"
         id="path1476"
         inkscape:connector-curvature="0" />
      <path
         d="m 219,388.5204 -49.92,0 -0.12,-0.12 -0.12,0 -0.24,-0.12 -0.12,0 -0.12,-0.12 0,-0.12 -0.12,-0.12 -0.12,-0.12 0,-0.84 0.12,-0.24 0.12,-0.12 0,-0.12 0.12,0 0.12,-0.12 0.24,-0.12 3,0 0,-18.12 -2.64,0 -0.12,-0.12 -0.24,0 -0.24,-0.12 -0.12,0 -0.12,-0.12 0,-0.12 -0.12,-0.12 -0.12,-0.12 0,-0.96 0.12,-0.12 0.12,-0.12 0,-0.12 0.12,0 0.12,-0.12 0.24,-0.12 50.64,0 0.12,0.12 0.12,0.12 0.12,0 0.12,0.12 0,0.12 0.12,0.12 0,0.36 0.12,0.12 -0.12,0.12 0,0.36 -0.12,0.12 0,0.12 -0.12,0.12 -0.12,0.12 -0.12,0 -0.12,0.12 -0.36,0 -0.12,0.12 -2.64,0 0,18.12 3.12,0 0.12,0.12 0.12,0.12 0.12,0 0.12,0.12 0,0.12 0.12,0.24 0,0.24 0.12,0.12 -0.12,0.12 0,0.36 -0.12,0.12 0,0.12 -0.12,0.12 -0.12,0.12 -0.12,0 -0.12,0.12 -0.12,0 -0.24,0.12 -0.12,0"
         style="fill:#ffffff;fill-opacity:1;fill-rule:evenodd;stroke:none"
         id="path1478"
         inkscape:connector-curvature="0" />
      <path
         d="m 220.2,400.2804 -5.4,0 0,-5.28 -5.28,0 0,5.28 -5.28,0 0,5.28 5.28,0 0,5.4 5.28,0 0,-5.4 5.4,0 0,-5.28"
         style="fill:#ffffff;fill-opacity:1;fill-rule:evenodd;stroke:none"
         id="path1480"
         inkscape:connector-curvature="0" />
      <path
         d="m 180,377.1204 0,0.24 -0.12,0.24 0,0.24 -0.12,0.24 0,0.24 -0.12,0.24 -0.12,0.12 -0.12,0.24 -0.24,0.24 -0.12,0.12 -0.24,0.12 -0.12,0.12 -0.24,0.12 -0.24,0.12 -0.24,0.12 -0.24,0.12 -1.32,0 -0.24,-0.12 -0.24,-0.12 -0.24,-0.12 -0.24,-0.12 -0.12,-0.12 -0.24,-0.12 -0.12,-0.12 -0.24,-0.24 -0.12,-0.24 -0.12,-0.12 -0.12,-0.24 0,-0.24 -0.12,-0.24 0,-0.24 -0.12,-0.24 0,-0.48 0.12,-0.24 0,-0.24 0.12,-0.24 0,-0.24 0.12,-0.12 0.12,-0.24 0.12,-0.24 0.24,-0.12 0.12,-0.24 0.24,-0.12 0.12,-0.12 0.24,-0.12 0.24,-0.12 0.24,-0.12 0.24,0 0.24,-0.12 0.96,0 0.12,0.12 0.24,0 0.24,0.12 0.24,0.12 0.24,0.12 0.12,0.12 0.24,0.12 0.12,0.24 0.24,0.12 0.12,0.24 0.12,0.24 0.12,0.12 0,0.24 0.12,0.24 0,0.24 0.12,0.24 0,0.24"
         style="fill:#1ea366;fill-opacity:1;fill-rule:evenodd;stroke:none"
         id="path1482"
         inkscape:connector-curvature="0" />
      <path
         d="m 212.4,373.5204 -27.12,0 -0.12,0 0,0 -0.12,-0.12 0,-0.24 0.12,0 0,-0.12 0.12,0 11.64,0 0.24,-0.12 0.12,0 0.12,-0.12 0.12,-0.12 0.12,-0.12 0.12,-0.12 0.12,-0.12 0.12,-0.12 0,-0.12 0.12,-0.12 0,-0.72 -0.12,-0.12 0,-0.12 -0.12,-0.24 -0.12,-0.12 -0.12,-0.12 -0.12,-0.12 -0.12,0 -0.12,-0.12 -0.12,-0.12 -12.72,0 -0.24,0.12 -0.36,0 -0.24,0.12 -0.24,0.12 -0.24,0.12 -0.24,0.12 -0.24,0.12 -0.24,0.24 -0.24,0.12 -0.24,0.24 -0.12,0.24 -0.24,0.24 -0.12,0.24 -0.12,0.24 -0.12,0.24 -0.12,0.24 -0.12,0.24 -0.12,0.36 0,7.2 0.12,0.36 0.12,0.24 0.12,0.24 0.12,0.24 0.12,0.36 0.12,0.24 0.24,0.12 0.12,0.24 0.24,0.24 0.24,0.24 0.24,0.12 0.24,0.12 0.24,0.12 0.24,0.24 0.24,0 0.24,0.12 0.36,0.12 12.96,0 0.12,-0.12 0.12,0 0.12,-0.12 0.12,-0.12 0.12,-0.12 0.12,-0.12 0.12,-0.12 0,-0.24 0.12,-0.12 0,-0.6 -0.12,-0.24 0,-0.12 -0.12,-0.12 -0.12,-0.12 -0.12,-0.12 -0.12,-0.12 -0.12,-0.12 -0.12,-0.12 -0.12,0 -0.24,-0.12 -11.64,0 -0.12,0 0,0 -0.12,-0.12 0,-0.24 0.12,0 0,-0.12 0.12,0 27.48,0 0.24,-0.12 0.12,0 0.12,-0.12 0.24,-0.12 0.12,-0.12 0.12,-0.12 0.12,-0.24 0.12,-0.12 0,-0.12 0.12,-0.24 0,-0.72 -0.12,-0.12 0,-0.24 -0.12,-0.12 -0.12,-0.24 -0.12,-0.12 -0.12,-0.12 -0.24,-0.12 -0.12,0 -0.12,-0.12 -0.24,0 -0.12,-0.12 -16.68,0 -0.12,0 0,-0.12 -0.12,-0.12 0.12,0 0,-0.12 0.12,-0.12 16.8,0 0.24,-0.12 0.12,0 0.12,-0.12 0.24,-0.12 0.12,-0.12 0.12,-0.12 0.12,-0.12 0.12,-0.24 0,-0.12 0.12,-0.24 0,-0.72 -0.12,-0.12 0,-0.24 -0.12,-0.12 -0.12,-0.24 -0.12,-0.12 -0.12,-0.12 -0.24,-0.12 -0.12,0 -0.12,-0.12 -0.24,0 -0.12,-0.12 -0.24,0"
         style="fill:#1ea366;fill-opacity:1;fill-rule:evenodd;stroke:none"
         id="path1484"
         inkscape:connector-curvature="0" />
    </g>
  </g>
</svg>
