<?xml version="1.0" encoding="UTF-8" standalone="no"?>
<!-- Created with Inkscape (http://www.inkscape.org/) -->

<svg
   xmlns:dc="http://purl.org/dc/elements/1.1/"
   xmlns:cc="http://creativecommons.org/ns#"
   xmlns:rdf="http://www.w3.org/1999/02/22-rdf-syntax-ns#"
   xmlns:svg="http://www.w3.org/2000/svg"
   xmlns="http://www.w3.org/2000/svg"
   xmlns:sodipodi="http://sodipodi.sourceforge.net/DTD/sodipodi-0.dtd"
   xmlns:inkscape="http://www.inkscape.org/namespaces/inkscape"
   width="73.949997"
   height="73.800003"
   id="svg10794"
   version="1.1"
   inkscape:version="0.48+devel r11964"
   sodipodi:docname="E016.svg">
    <title
     id="title16">EN ISO 7010:2012</title>
     <defs
     id="defs10796" />
  <sodipodi:namedview
     id="base"
     pagecolor="#ffffff"
     bordercolor="#666666"
     borderopacity="1.0"
     inkscape:pageopacity="0.0"
     inkscape:pageshadow="2"
     inkscape:zoom="0.35"
     inkscape:cx="36.975"
     inkscape:cy="36.900017"
     inkscape:document-units="px"
     inkscape:current-layer="layer1"
     showgrid="false"
     inkscape:window-width="474"
     inkscape:window-height="415"
     inkscape:window-x="49"
     inkscape:window-y="24"
     inkscape:window-maximized="0"
     fit-margin-top="0"
     fit-margin-left="0"
     fit-margin-right="0"
     fit-margin-bottom="0"
     showborder="false" />
  <metadata
     id="metadata10799">
    <rdf:RDF>
      <cc:Work
         rdf:about="">
        <dc:format>image/svg+xml</dc:format>
        <dc:type
           rdf:resource="http://purl.org/dc/dcmitype/StillImage" />
        <dc:title>EN ISO 7010:2012</dc:title>
        <cc:license
           rdf:resource="http://creativecommons.org/licenses/publicdomain/" />
        <dc:creator>
          <cc:Agent>
            <dc:title></dc:title>
          </cc:Agent>
        </dc:creator>
        <dc:source>www.veiligheidspictogrammen.be</dc:source>
      </cc:Work>
      <cc:License
         rdf:about="http://creativecommons.org/licenses/publicdomain/">
        <cc:permits
           rdf:resource="http://creativecommons.org/ns#Reproduction" />
        <cc:permits
           rdf:resource="http://creativecommons.org/ns#Distribution" />
        <cc:permits
           rdf:resource="http://creativecommons.org/ns#DerivativeWorks" />
      </cc:License>
    </rdf:RDF>
  </metadata>
  <g
     inkscape:label="Layer 1"
     inkscape:groupmode="layer"
     id="layer1"
     transform="translate(-338.025,-495.4622)">
    <g
       transform="matrix(1.25,0,0,-1.25,175.125,1291.3127)"
       id="g10769">
      <path
         d="m 130.32,577.6404 59.16,0 0,59.04 -59.16,0 L 130.32,577.6404 Z"
         style="fill:#1ea366;fill-opacity:1;fill-rule:evenodd;stroke:none"
         id="path654"
         inkscape:connector-curvature="0" />
      <path
         d="m 171.6,607.1604 -4.56,0 -1.8,1.8 -13.92,-13.92 -0.12,-0.12 -0.12,-0.12 -0.12,0 -0.24,-0.12 -0.12,0 -0.12,-0.12 -0.6,0 -0.24,0.12 -0.12,0 -0.12,0.12 -0.12,0 -0.12,0.12 -0.12,0.12 -0.12,0.12 -0.12,0.12 -0.12,0.12 0,0.24 -0.12,0.12 0,0.96 0.12,0.12 0,0.12 0.12,0.12 0.12,0.24 0.12,0 11.52,11.64 -6.12,6.12 -5.04,-5.04 0,-0.12 -0.12,-0.12 -0.12,0 -0.12,-0.12 -0.36,0 -0.12,-0.12 -7.44,0 -0.12,0.12 -0.24,0 -0.12,0.12 -0.12,0.12 -0.12,0 -0.12,0.12 -0.12,0.12 -0.12,0.12 0,0.12 -0.12,0.24 0,0.84 0.12,0.12 0,0.12 0.12,0.12 0.12,0.12 0.12,0.12 0.12,0.12 0.12,0.12 0.12,0 0.12,0.12 6.96,0 9.24,9.24 0.12,0.12 0.12,0.12 0.12,0.12 0.24,0 0.12,0.12 7.8,0 0.12,-0.12 0.12,0 0.12,-0.12 0.12,0 0.12,-0.12 0.12,-0.12 0.12,-0.12 0,-0.12 0.12,-0.12 0.12,-0.12 0,-7.92 -2.88,2.88 0,3.12 -4.2,0 12,-12.12"
         style="fill:#ffffff;fill-opacity:1;fill-rule:evenodd;stroke:none"
         id="path656"
         inkscape:connector-curvature="0" />
      <path
         d="m 150.36,631.4004 0,-6.12 -0.12,-0.12 -0.24,-0.12 -0.24,-0.12 -0.12,-0.24 -0.24,-0.12 -0.12,-0.24 -0.12,-0.24 -0.12,-0.12 0,2.52 -10.68,0 0,-6.84 10.68,0 0,0.48 0.12,-0.24 0.12,-0.12 0.12,-0.24 0.24,-0.12 0.12,-0.24 0.24,-0.12 0.24,-0.12 0.12,-0.12 0,-2.52 -1.32,-1.44 0,3.6 -10.68,0 0,-6.84 0.72,0 0,-1.32 -0.72,0 0,-6.72 10.68,0 0,5.28 0.12,0 0.24,0.12 0.12,0.12 0.24,0.12 0.12,0.12 0.12,0.12 0.36,0.36 0,-9.84 -1.32,-1.44 0,3.72 -10.68,0 0,-6.84 9.48,0 0,-0.12 0.12,-0.24 0.12,-0.12 0.12,-0.24 0.12,-0.12 0.12,-0.12 0.12,-0.12 0.24,-0.12 -10.44,0 0,-6.84 10.68,0 0,6.72 0.12,-0.12 0.24,-0.12 0.12,0 0.24,-0.12 0.6,0 0,-10.8 -1.32,0 0,3.12 -10.68,0 0,-3.12 -1.44,0 0,48.48 1.44,0 0,-3.6 10.68,0 0,3.6 1.32,0"
         style="fill:#ffffff;fill-opacity:1;fill-rule:evenodd;stroke:none"
         id="path658"
         inkscape:connector-curvature="0" />
      <path
         d="m 155.04,622.0404 0,0.36 -0.12,0.24 0,0.24 -0.12,0.24 0,0.12 -0.12,0.24 -0.12,0.12 -0.12,0.24 -0.12,0.12 -0.24,0.12 -0.12,0.24 -0.12,0.12 -0.24,0.12 -0.12,0 -0.24,0.12 -0.24,0.12 -0.36,0 -0.24,0.12 -0.48,0 -0.12,-0.12 -0.48,0 -0.24,-0.12 -0.12,-0.12 -0.24,0 -0.12,-0.12 -0.24,-0.12 -0.12,-0.24 -0.12,-0.12 -0.24,-0.12 -0.12,-0.24 -0.12,-0.12 0,-0.24 -0.12,-0.12 -0.12,-0.24 0,-0.24 -0.12,-0.24 0,-0.84 0.12,-0.12 0,-0.24 0.12,-0.24 0.12,-0.24 0,-0.12 0.12,-0.24 0.12,-0.12 0.24,-0.12 0.12,-0.24 0.12,-0.12 0.24,-0.12 0.12,-0.12 0.24,-0.12 0.12,0 0.24,-0.12 0.24,0 0.24,-0.12 0.84,0 0.12,0.12 0.24,0 0.24,0.12 0.24,0 0.12,0.12 0.24,0.12 0.12,0.12 0.12,0.12 0.24,0.24 0.12,0.12 0.12,0.12 0.12,0.24 0.12,0.12 0,0.24 0.12,0.24 0,0.24 0.12,0.12 0,0.48"
         style="fill:#ffffff;fill-opacity:1;fill-rule:evenodd;stroke:none"
         id="path660"
         inkscape:connector-curvature="0" />
      <path
         d="m 159,609.3204 -1.8,1.92 0,-4.44 1.8,1.8 0,0.72"
         style="fill:#ffffff;fill-opacity:1;fill-rule:evenodd;stroke:none"
         id="path662"
         inkscape:connector-curvature="0" />
      <path
         d="m 159,623.0004 0,6.6 22.08,0 0,-23.28 -17.28,0 -1.8,-1.8 20.88,0 0,26.88 -25.68,0 0,-8.64 0.12,0.12 0.24,0 0.12,0.12 1.32,0"
         style="fill:#ffffff;fill-opacity:1;fill-rule:evenodd;stroke:none"
         id="path664"
         inkscape:connector-curvature="0" />
    </g>
  </g>
</svg>
