<?xml version="1.0" encoding="UTF-8" standalone="no"?>
<!-- Created with Inkscape (http://www.inkscape.org/) -->

<svg
   xmlns:dc="http://purl.org/dc/elements/1.1/"
   xmlns:cc="http://creativecommons.org/ns#"
   xmlns:rdf="http://www.w3.org/1999/02/22-rdf-syntax-ns#"
   xmlns:svg="http://www.w3.org/2000/svg"
   xmlns="http://www.w3.org/2000/svg"
   xmlns:sodipodi="http://sodipodi.sourceforge.net/DTD/sodipodi-0.dtd"
   xmlns:inkscape="http://www.inkscape.org/namespaces/inkscape"
   width="73.949997"
   height="73.800003"
   id="svg11007"
   version="1.1"
   inkscape:version="0.48+devel r11964"
   sodipodi:docname="E017.svg">
    <title
     id="title16">EN ISO 7010:2012</title>
     <defs
     id="defs11009" />
  <sodipodi:namedview
     id="base"
     pagecolor="#ffffff"
     bordercolor="#666666"
     borderopacity="1.0"
     inkscape:pageopacity="0.0"
     inkscape:pageshadow="2"
     inkscape:zoom="0.35"
     inkscape:cx="36.975"
     inkscape:cy="36.900017"
     inkscape:document-units="px"
     inkscape:current-layer="layer1"
     showgrid="false"
     inkscape:window-width="474"
     inkscape:window-height="395"
     inkscape:window-x="49"
     inkscape:window-y="24"
     inkscape:window-maximized="0"
     fit-margin-top="0"
     fit-margin-left="0"
     fit-margin-right="0"
     fit-margin-bottom="0"
     showborder="false" />
  <metadata
     id="metadata11012">
    <rdf:RDF>
      <cc:Work
         rdf:about="">
        <dc:format>image/svg+xml</dc:format>
        <dc:type
           rdf:resource="http://purl.org/dc/dcmitype/StillImage" />
        <dc:title>EN ISO 7010:2012</dc:title>
        <cc:license
           rdf:resource="http://creativecommons.org/licenses/publicdomain/" />
        <dc:creator>
          <cc:Agent>
            <dc:title></dc:title>
          </cc:Agent>
        </dc:creator>
        <dc:source>www.veiligheidspictogrammen.be</dc:source>
      </cc:Work>
      <cc:License
         rdf:about="http://creativecommons.org/licenses/publicdomain/">
        <cc:permits
           rdf:resource="http://creativecommons.org/ns#Reproduction" />
        <cc:permits
           rdf:resource="http://creativecommons.org/ns#Distribution" />
        <cc:permits
           rdf:resource="http://creativecommons.org/ns#DerivativeWorks" />
      </cc:License>
    </rdf:RDF>
  </metadata>
  <g
     inkscape:label="Layer 1"
     inkscape:groupmode="layer"
     id="layer1"
     transform="translate(-338.025,-495.4622)">
    <g
       transform="matrix(1.25,0,0,-1.25,175.125,1152.2627)"
       id="g10976">
      <path
         d="m 130.32,466.4004 59.16,0 0,59.04 -59.16,0 L 130.32,466.4004 Z"
         style="fill:#1ea366;fill-opacity:1;fill-rule:evenodd;stroke:none"
         id="path978"
         inkscape:connector-curvature="0" />
      <path
         d="m 166.2,514.5204 0,0.48 -0.12,0.24 0,0.12 -0.12,0.12 -0.12,0.12 -0.12,0.12 -0.12,0.12 -0.12,0.12 -0.12,0.12 -0.12,0 -0.24,0.12 -0.96,0 -0.12,-0.12 -0.24,0 -0.12,-0.12 -0.12,-0.12 -0.12,-0.12 -0.12,-0.12 -0.12,-0.12 0,-0.12 -0.12,-0.12 0,-0.24 -0.12,-0.12 0,-0.72 0.12,-0.12 0,-0.12 0.12,-0.24 0,-0.12 0.12,-0.12 0.12,-0.12 0.12,-0.12 0.12,-0.12 0.12,0 0.24,-0.12 0.12,-0.12 0.96,0 0.24,0.12 0.12,0.12 0.12,0 0.12,0.12 0.12,0.12 0.12,0.12 0.12,0.12 0.12,0.12 0,0.24 0.12,0.12 0,0.48"
         style="fill:#ffffff;fill-opacity:1;fill-rule:evenodd;stroke:none"
         id="path980"
         inkscape:connector-curvature="0" />
      <path
         d="m 139.8,486.9204 -1.56,-4.08 0,-0.48 0.12,-0.12 0,0 0.12,-0.12 0.12,0 0.12,-0.12 0.12,0 0,0 6.48,0.72 0,4.8 -5.16,-0.36 -0.24,0 0,-0.12 L 139.8,486.9204 z m 15,27 -0.84,-2.64 -2.04,2.64 L 154.8,513.9204 z m 0.72,-0.24 2.76,-3.72 -3.36,0 -0.36,0.48 L 155.52,513.6804 z m 0,-4.44 2.04,-2.76 0.72,2.76 L 155.52,509.2404 z m 6.36,-4.8 -0.72,-2.64 -2.04,2.64 L 161.88,504.4404 z m 4.32,-9.36 2.04,-2.76 0.84,2.76 L 166.2,495.0804 z m 6.36,-4.8 -0.72,-2.64 -2.04,2.64 L 172.56,490.2804 z m -2.76,4.44 2.76,-3.6 -3.36,0 -0.36,0.48 L 169.8,494.7204 z m 3.48,-4.68 -0.84,-3.24 0.36,-0.48 3.36,0 L 173.28,490.0404 z m 0.12,-4.44 2.04,-2.76 0.72,2.76 L 173.4,485.6004 z m -10.8,18.6 2.76,-3.6 -3.24,0 -0.36,0.36 L 162.6,504.2004 z m 2.88,-4.44 -0.84,-2.76 -2.04,2.76 L 165.48,499.7604 z m -25.08,-10.92 5.04,0.48 3.96,0 0,-8.64 14.16,0 0,5.76 4.2,0 1.08,0.84 -4.44,6 0.6,2.16 -14.52,19.32 5.04,0 5.04,-6.72 -0.12,-0.12 -0.12,0 0,-0.12 -0.12,-0.12 -0.12,-0.12 -0.96,1.44 -0.96,-3.24 0.36,-0.48 3.36,0 -0.12,0.12 0.84,0 3.12,-4.08 0,-3.6 -0.48,-1.44 0.36,-0.48 3.36,0 -0.72,0.96 0.12,0.12 0.12,0.12 0,0.36 0.12,0.12 8.4,-11.28 -1.32,-4.8 -2.4,0 -0.84,1.2 -0.48,-0.36 0,-1.56 5.04,0 0,-4.68 -2.76,-1.08 -2.28,0 -0.12,0.24 0,0.6 -0.12,0.24 0,0.24 -0.12,0.24 -0.12,0.24 -0.12,0.24 -0.12,0.24 -0.12,0.24 -0.12,0.12 -0.24,0.24 -0.12,0.24 -0.24,0.12 -0.24,0.12 -0.24,0.24 -0.24,0.12 -0.24,0.12 -0.24,0.12 -0.24,0 -0.24,0.12 -0.24,0.12 -1.56,0 -0.24,-0.12 -0.24,-0.12 -0.24,0 -0.24,-0.12 -0.24,-0.12 -0.24,-0.12 -0.24,-0.24 -0.24,-0.12 -0.12,-0.12 -0.24,-0.24 -0.12,-0.24 -0.24,-0.12 -0.12,-0.24 -0.12,-0.24 -0.12,-0.24 -0.12,-0.24 -0.12,-0.24 0,-0.24 -0.12,-0.24 0,-0.84 -16.44,0 0,0.6 -0.12,0.24 0,0.24 -0.12,0.24 -0.12,0.24 -0.12,0.24 -0.12,0.24 -0.12,0.24 -0.12,0.24 -0.12,0.12 -0.24,0.24 -0.12,0.24 -0.24,0.12 -0.24,0.12 -0.12,0.24 -0.24,0.12 -0.24,0.12 -0.24,0.12 -0.24,0 -0.24,0.12 -0.36,0.12 -1.56,0 -0.24,-0.12 -0.24,-0.12 -0.24,0 -0.24,-0.12 -0.24,-0.12 -0.24,-0.12 -0.24,-0.24 -0.24,-0.12 -0.12,-0.12 -0.24,-0.24 -0.12,-0.24 -0.24,-0.12 -0.12,-0.24 -0.12,-0.24 -0.12,-0.24 -0.12,-0.24 0,-0.24 -0.12,-0.24 -0.12,-0.24 0,-0.84 -0.96,0 -0.12,0.12 -0.12,0 -0.12,0.12 0,0 -0.12,0.12 -0.12,0.12 0,0.24 -0.12,0.12 0,6 0.12,0.24 0,0.12 2.4,6.12 0,0.12 0.12,0.12 0,0.12 0.12,0.12 0.12,0 0.12,0.12 0.36,0"
         style="fill:#ffffff;fill-opacity:1;fill-rule:evenodd;stroke:none"
         id="path982"
         inkscape:connector-curvature="0" />
      <path
         d="m 148.44,490.8804 0,0.24 -0.12,0.12 0,0.12 -0.12,0.12 -0.12,0.12 0,0.12 -0.12,0.12 -0.12,0 -0.12,0.12 -0.84,0 -0.12,-0.12 -0.12,0 -0.12,-0.12 -0.12,-0.12 -0.12,-0.12 -0.12,-0.12 0,-0.24 -0.12,-0.12 0,-1.32 2.4,0 0,1.2"
         style="fill:#ffffff;fill-opacity:1;fill-rule:evenodd;stroke:none"
         id="path984"
         inkscape:connector-curvature="0" />
      <path
         d="m 146.16,474.9204 0,0.48 -0.12,0.24 0,0.24 -0.12,0.24 0,0.12 -0.12,0.24 -0.12,0.24 -0.12,0.12 -0.24,0.24 -0.12,0.12 -0.12,0.24 -0.24,0.12 -0.24,0.12 -0.12,0.12 -0.24,0.12 -0.24,0.12 -0.24,0 -0.12,0.12 -1.44,0 -0.24,-0.12 -0.24,0 -0.24,-0.12 -0.12,-0.12 -0.24,-0.12 -0.12,-0.12 -0.24,-0.12 -0.12,-0.24 -0.24,-0.12 -0.12,-0.24 -0.12,-0.12 -0.12,-0.24 -0.12,-0.24 -0.12,-0.12 0,-0.24 -0.12,-0.24 0,-1.44 0.12,-0.24 0,-0.12 0.12,-0.24 0.12,-0.24 0.12,-0.24 0.12,-0.12 0.12,-0.24 0.24,-0.12 0.12,-0.12 0.24,-0.24 0.12,-0.12 0.24,-0.12 0.12,-0.12 0.24,0 0.24,-0.12 0.24,0 0.24,-0.12 0.96,0 0.24,0.12 0.12,0 0.24,0.12 0.24,0 0.24,0.12 0.12,0.12 0.24,0.12 0.24,0.24 0.12,0.12 0.12,0.12 0.24,0.24 0.12,0.12 0.12,0.24 0.12,0.24 0,0.24 0.12,0.12 0,0.24 0.12,0.24 0,0.48"
         style="fill:#ffffff;fill-opacity:1;fill-rule:evenodd;stroke:none"
         id="path986"
         inkscape:connector-curvature="0" />
      <path
         d="m 171,474.9204 0,0.24 -0.12,0.24 0,0.48 -0.12,0.24 -0.12,0.12 -0.12,0.24 -0.12,0.24 -0.12,0.12 -0.12,0.24 -0.12,0.12 -0.24,0.24 -0.12,0.12 -0.24,0.12 -0.12,0.12 -0.24,0.12 -0.24,0.12 -0.24,0 -0.24,0.12 -1.32,0 -0.24,-0.12 -0.24,0 -0.24,-0.12 -0.12,-0.12 -0.24,-0.12 -0.24,-0.12 -0.12,-0.12 -0.24,-0.24 -0.12,-0.12 -0.12,-0.24 -0.12,-0.12 -0.12,-0.24 -0.12,-0.24 -0.12,-0.12 -0.12,-0.24 0,-0.48 -0.12,-0.24 0,-0.48 0.12,-0.24 0,-0.48 0.12,-0.12 0.12,-0.24 0.12,-0.24 0.12,-0.24 0.12,-0.12 0.12,-0.24 0.12,-0.12 0.24,-0.12 0.12,-0.24 0.24,-0.12 0.24,-0.12 0.12,-0.12 0.24,0 0.24,-0.12 0.24,0 0.24,-0.12 0.84,0 0.24,0.12 0.24,0 0.24,0.12 0.24,0 0.24,0.12 0.12,0.12 0.24,0.12 0.12,0.24 0.24,0.12 0.12,0.12 0.12,0.24 0.12,0.12 0.12,0.24 0.12,0.24 0.12,0.24 0.12,0.12 0,0.48 0.12,0.24 0,0.24"
         style="fill:#ffffff;fill-opacity:1;fill-rule:evenodd;stroke:none"
         id="path988"
         inkscape:connector-curvature="0" />
      <path
         d="m 171.36,505.2804 -1.08,-1.2 12.48,0 0,16.08 -15.24,0 0,-5.16 0.24,0 0.12,0.12 0.72,0 0,3.84 13.08,0 0,-13.68 -10.32,0"
         style="fill:#ffffff;fill-opacity:1;fill-rule:evenodd;stroke:none"
         id="path990"
         inkscape:connector-curvature="0" />
      <path
         d="m 173.16,513.8004 0,-4.44 -1.68,1.68 0,1.92 -2.52,0 7.2,-7.32 -2.76,0 -1.08,1.2 -4.2,-4.2 0,-5.16 -0.12,-0.12 0,-0.24 -0.12,-0.12 -0.12,0 0,-0.12 -0.12,-0.12 -0.12,0 -0.12,-0.12 -0.48,0 -0.12,0.12 -0.12,0 -0.12,0.12 -0.12,0.12 -0.12,0 0,0.12 -0.12,0.12 0,6.12 0.12,0.12 0,0.12 0.12,0.12 3.12,3.12 -3.36,3.36 0,-3.6 -0.12,0 0,-0.24 -0.12,-0.12 0,-0.12 -0.12,0 -0.12,-0.12 -0.12,0 -0.12,-0.12 -0.12,0 -4.56,0 0,0.12 -0.12,0 -0.12,0.12 -0.12,0 0,0.12 -0.12,0.12 0,0.12 -0.12,0.12 0,0.36 0.12,0.12 0,0.12 0.12,0.12 0,0 0.12,0.12 0.12,0 0.12,0.12 3.6,0 0,3.48 0.12,0.12 0,0.24 0.12,0.12 0.12,0.12 2.64,2.76 0.12,0 0.12,0.12 0.12,0 0.12,0.12 4.68,0 0.12,-0.12 0,0 0.12,-0.12 0.12,0 0,-0.12 0.12,-0.12 0,-0.12 0.12,-0.12 0,-0.12"
         style="fill:#ffffff;fill-opacity:1;fill-rule:evenodd;stroke:none"
         id="path992"
         inkscape:connector-curvature="0" />
      <path
         d="m 168.6,506.4804 0,0.6 -1.08,1.08 0,-2.76 1.08,1.08"
         style="fill:#ffffff;fill-opacity:1;fill-rule:evenodd;stroke:none"
         id="path994"
         inkscape:connector-curvature="0" />
    </g>
  </g>
</svg>
