<?xml version="1.0" encoding="UTF-8" standalone="no"?>
<!-- Created with Inkscape (http://www.inkscape.org/) -->

<svg
   xmlns:dc="http://purl.org/dc/elements/1.1/"
   xmlns:cc="http://creativecommons.org/ns#"
   xmlns:rdf="http://www.w3.org/1999/02/22-rdf-syntax-ns#"
   xmlns:svg="http://www.w3.org/2000/svg"
   xmlns="http://www.w3.org/2000/svg"
   xmlns:sodipodi="http://sodipodi.sourceforge.net/DTD/sodipodi-0.dtd"
   xmlns:inkscape="http://www.inkscape.org/namespaces/inkscape"
   width="73.949997"
   height="73.800003"
   id="svg11534"
   version="1.1"
   inkscape:version="0.48+devel r11964"
   sodipodi:docname="E019.svg">
    <title
     id="title16">EN ISO 7010:2012</title>
     <defs
     id="defs11536" />
  <sodipodi:namedview
     id="base"
     pagecolor="#ffffff"
     bordercolor="#666666"
     borderopacity="1.0"
     inkscape:pageopacity="0.0"
     inkscape:pageshadow="2"
     inkscape:zoom="0.35"
     inkscape:cx="106.26071"
     inkscape:cy="-203.1"
     inkscape:document-units="px"
     inkscape:current-layer="layer1"
     showgrid="false"
     inkscape:window-width="474"
     inkscape:window-height="395"
     inkscape:window-x="49"
     inkscape:window-y="24"
     inkscape:window-maximized="0"
     fit-margin-top="0"
     fit-margin-left="0"
     fit-margin-right="0"
     fit-margin-bottom="0"
     showborder="false" />
  <metadata
     id="metadata11539">
    <rdf:RDF>
      <cc:Work
         rdf:about="">
        <dc:format>image/svg+xml</dc:format>
        <dc:type
           rdf:resource="http://purl.org/dc/dcmitype/StillImage" />
        <dc:title>EN ISO 7010:2012</dc:title>
        <cc:license
           rdf:resource="http://creativecommons.org/licenses/publicdomain/" />
        <dc:creator>
          <cc:Agent>
            <dc:title></dc:title>
          </cc:Agent>
        </dc:creator>
        <dc:source>www.veiligheidspictogrammen.be</dc:source>
      </cc:Work>
      <cc:License
         rdf:about="http://creativecommons.org/licenses/publicdomain/">
        <cc:permits
           rdf:resource="http://creativecommons.org/ns#Reproduction" />
        <cc:permits
           rdf:resource="http://creativecommons.org/ns#Distribution" />
        <cc:permits
           rdf:resource="http://creativecommons.org/ns#DerivativeWorks" />
      </cc:License>
    </rdf:RDF>
  </metadata>
  <g
     inkscape:label="Layer 1"
     inkscape:groupmode="layer"
     id="layer1"
     transform="translate(-268.73929,-255.46218)">
    <g
       transform="matrix(-1.25,0,0,-1.25,505.58929,773.21268)"
       id="g11509">
      <path
         d="m 130.32,355.1604 59.16,0 0,59.04 -59.16,0 L 130.32,355.1604 Z"
         style="fill:#1ea366;fill-opacity:1;fill-rule:evenodd;stroke:none"
         id="path1326"
         inkscape:connector-curvature="0" />
      <path
         d="m 155.28,360.4404 24.48,0 0,48.48 -24.48,0 L 155.28,360.4404 Z"
         style="fill:#ffffff;fill-opacity:1;fill-rule:evenodd;stroke:none"
         id="path1328"
         inkscape:connector-curvature="0" />
      <path
         d="m 155.28,405.4404 0,-5.64 -0.36,-0.24 -0.36,-0.24 -0.36,-0.24 -0.36,-0.24 -0.36,-0.24 -0.36,-0.24 -0.36,-0.24 -0.36,-0.36 -0.24,-0.24 -0.36,-0.36 -0.24,-0.24 -0.36,-0.36 -0.24,-0.36 -0.24,-0.36 -0.24,-0.36 -0.24,-0.36 -0.24,-0.36 -0.24,-0.36 -0.12,-0.48 -0.24,-0.36 -0.12,-0.36 -0.24,-0.48 -0.12,-0.36 -0.12,-0.48 -0.12,-0.36 0,-0.36 -0.12,-0.48 -0.12,-0.48 3.36,0 -5.88,-6.48 -5.88,6.48 3.12,0 0,0.6 0.12,0.48 0.12,0.48 0.12,0.6 0.12,0.48 0.12,0.48 0.12,0.6 0.12,0.48 0.24,0.48 0.12,0.48 0.24,0.48 0.24,0.48 0.24,0.48 0.24,0.48 0.24,0.48 0.36,0.36 0.24,0.48 0.36,0.48 0.24,0.36 0.36,0.48 0.36,0.36 0.36,0.36 0.36,0.36 0.36,0.36 0.36,0.36 0.36,0.36 0.48,0.36 0.84,0.72 0.48,0.24 0.36,0.24 0.48,0.36 0.48,0.24 0.48,0.24 0.48,0.24 0.48,0.24 0.48,0.12 0.48,0.24 0.48,0.12"
         style="fill:#ffffff;fill-opacity:1;fill-rule:evenodd;stroke:none"
         id="path1330"
         inkscape:connector-curvature="0" />
      <path
         d="m 157.08,375.6804 0.84,0 0.12,0.12 0.24,0.12 0.24,0.12 0.24,0 0.12,0.24 0.24,0.12 0.24,0.12 0.12,0.12 0.24,0.24 0.12,0.12 0.24,0.24 0.12,0.24 0.12,0.24 0.24,0.24 0.12,0.24 0.12,0.24 0.12,0.24 0.12,0.36 0.12,0.24 0.12,0.36 0.12,0.24 0.12,0.36 0.12,0.36 0,0.24 0.12,0.36 0.12,0.36 0,0.72 0.12,0.24 0,2.52 -0.12,0.36 0,0.72 -0.12,0.24 -0.12,0.36 0,0.36 -0.12,0.36 -0.12,0.24 -0.12,0.36 -0.12,0.24 -0.12,0.36 -0.12,0.24 -0.12,0.24 -0.12,0.24 -0.12,0.36 -0.24,0.24 -0.12,0.12 -0.12,0.24 -0.24,0.24 -0.12,0.24 -0.24,0.12 -0.12,0.24 -0.24,0.12 -0.24,0.12 -0.12,0.12 -0.24,0.12 -0.24,0.12 -0.24,0 -0.36,0.12 -0.24,0.12 -0.36,0 10.44,0 0.24,-0.12 0.24,0 0.12,-0.12 0.24,0 0.24,-0.12 0.24,-0.12 0.12,-0.12 0.24,-0.12 0.24,-0.12 0.12,-0.24 0.24,-0.12 0.12,-0.24 0.24,-0.24 0.12,-0.24 0.12,-0.12 0.24,-0.24 0.12,-0.36 0.12,-0.24 0.12,-0.24 0.12,-0.24 0.24,-0.36 0,-0.24 0.12,-0.36 0.12,-0.24 0.12,-0.36 0,-0.36 0.12,-0.36 0.12,-0.24 0,-0.72 0.12,-0.36 0,-2.52 -0.12,-0.24 0,-0.72 -0.12,-0.36 -0.12,-0.36 0,-0.24 -0.12,-0.36 -0.12,-0.36 -0.12,-0.24 0,-0.36 -0.24,-0.24 -0.12,-0.36 -0.12,-0.24 -0.12,-0.24 -0.12,-0.24 -0.24,-0.24 -0.12,-0.24 -0.12,-0.24 -0.24,-0.24 -0.12,-0.12 -0.24,-0.24 -0.12,-0.12 -0.24,-0.12 -0.24,-0.12 -0.12,-0.24 -0.24,0 -0.24,-0.12 -0.24,-0.12 -0.12,-0.12 -10.92,0"
         style="fill:#1ea366;fill-opacity:1;fill-rule:evenodd;stroke:none"
         id="path1332"
         inkscape:connector-curvature="0" />
      <path
         d="m 157.08,392.0004 -0.48,0 -0.24,-0.12 -0.24,0 -0.12,-0.12 -0.24,0 -0.24,-0.12 -0.24,-0.12 -0.12,-0.12 -0.24,-0.12 -0.24,-0.24 -0.12,-0.12 -0.24,-0.24 -0.12,-0.12 -0.24,-0.24 -0.12,-0.24 -0.12,-0.24 -0.24,-0.24 -0.12,-0.24 -0.12,-0.24 -0.12,-0.24 -0.12,-0.36 -0.12,-0.24 -0.12,-0.36 -0.12,-0.24 -0.12,-0.36 -0.12,-0.36 0,-0.24 -0.12,-0.36 0,-0.36 -0.12,-0.36 0,-0.36 -0.12,-0.36 0,-2.4 0.12,-0.36 0,-0.36 0.12,-0.36 0,-0.36 0.12,-0.36 0.12,-0.24 0,-0.36 0.12,-0.36 0.12,-0.24 0.12,-0.36 0.12,-0.24 0.12,-0.24 0.12,-0.36 0.24,-0.24 0.12,-0.24 0.12,-0.24 0.24,-0.24 0.12,-0.24 0.24,-0.12 0.12,-0.24 0.24,-0.12 0.12,-0.24 0.24,-0.12 0.24,-0.12 0.12,-0.12 0.24,-0.12 0.24,-0.12 0.24,0 0.12,-0.12 1.56,0 0.24,0.12 0.12,0 0.24,0.12 0.24,0.12 0.24,0.12 0.12,0.12 0.24,0.12 0.24,0.24 0.12,0.12 0.24,0.24 0.12,0.12 0.12,0.24 0.24,0.24 0.12,0.24 0.24,0.24 0.12,0.24 0.12,0.36 0.12,0.24 0.12,0.24 0.12,0.36 0.12,0.24 0.12,0.36 0.12,0.36 0,0.24 0.12,0.36 0.12,0.36 0,0.72 0.12,0.36 0,2.4 -0.12,0.36 0,0.72 -0.12,0.36 0,0.36 -0.12,0.24 -0.12,0.36 -0.12,0.36 -0.12,0.24 0,0.36 -0.24,0.24 -0.12,0.36 -0.12,0.24 -0.12,0.24 -0.12,0.24 -0.12,0.24 -0.24,0.24 -0.36,0.48 -0.12,0.12 -0.24,0.24 -0.12,0.12 -0.24,0.24 -0.24,0.12 -0.12,0.12 -0.24,0.12 -0.24,0.12 -0.24,0 -0.12,0.12 -0.24,0 -0.24,0.12 -0.36,0"
         style="fill:#ffffff;fill-opacity:1;fill-rule:evenodd;stroke:none"
         id="path1334"
         inkscape:connector-curvature="0" />
      <path
         d="m 155.28,399.8004 0.36,0.12 0.48,0.24 0.36,0.12 0.36,0.12 0.48,0.12 0.36,0.12 0.48,0.12 0.48,0.12 0.84,0.12 2.16,0 0.84,-0.12 0.48,0 0.36,-0.12 0.36,-0.12 0.48,-0.12 0.36,-0.12 0.48,-0.12 0.36,-0.12 0.48,-0.24 0.36,-0.12 0.36,-0.24 0.36,-0.12 0.36,-0.24 0.48,-0.24 0.24,-0.24 0.36,-0.36 0.36,-0.24 0.36,-0.24 0.24,-0.36 0.36,-0.24 0.36,-0.36 0.24,-0.36 0.24,-0.24 0.24,-0.36 0.36,-0.36 0.24,-0.36 0.12,-0.36 0.24,-0.36 0.24,-0.48 0.12,-0.36 0.24,-0.36 0.12,-0.48 0.12,-0.36 0.12,-0.36 0.12,-0.48 0.12,-0.48 0.12,-0.36 0,-0.48 0.12,-0.36 0,-1.32 5.28,0 0,1.56 -0.12,0.48 0,0.6 -0.12,0.48 -0.12,0.48 -0.12,0.48 -0.12,0.6 -0.12,0.48 -0.12,0.48 -0.24,0.48 -0.12,0.48 -0.24,0.48 -0.24,0.48 -0.24,0.48 -0.24,0.48 -0.24,0.48 -0.24,0.36 -0.24,0.48 -0.36,0.48 -0.36,0.36 -0.24,0.48 -0.36,0.36 -0.36,0.36 -0.36,0.36 -0.36,0.36 -0.36,0.36 -0.36,0.36 -0.48,0.36 -0.36,0.36 -0.48,0.24 -0.36,0.36 -0.48,0.24 -0.84,0.6 -0.48,0.24 -0.48,0.24 -0.96,0.36 -0.48,0.24 -0.48,0.12 -0.48,0.24 -0.48,0.12 -0.48,0.12 -0.6,0.12 -0.48,0.12 -0.48,0.12 -1.08,0.12 -0.48,0 -1.08,0.12 -0.48,-0.12 -1.56,0 -0.6,-0.12 -0.48,-0.12 -0.48,0 -0.48,-0.12 -0.6,-0.12 -0.48,-0.24 -0.48,-0.12 0,-5.64"
         style="fill:#1ea366;fill-opacity:1;fill-rule:evenodd;stroke:none"
         id="path1336"
         inkscape:connector-curvature="0" />
    </g>
  </g>
</svg>
